<?xml version="1.0" encoding="UTF-8"?>
<svg version="1.1" xmlns="http://www.w3.org/2000/svg" width="692" height="286">
<path d="M0 0 C0.67820801 0.19787109 1.35641602 0.39574219 2.05517578 0.59960938 C13.06466984 3.85271352 13.06466984 3.85271352 15.87890625 7.3046875 C17.16179034 10.38897328 17.21261606 12.36980361 17 15.6875 C16.8330043 23.2394168 17.95306946 29.76255755 22.625 35.875 C29.03936481 42.3778388 36.76102275 43.60793654 45.5625 43.75 C46.47580078 43.77964844 47.38910156 43.80929688 48.33007812 43.83984375 C50.55346923 43.9096885 52.77586468 43.96279745 55 44 C64.69597371 63.39194741 64.69597371 63.39194741 64 69 C62.15600578 71.6863218 59.84845668 73.76181777 57.4375 75.9375 C56.13240232 77.17397647 54.82899484 78.41223954 53.52734375 79.65234375 C52.59510986 80.52802002 52.59510986 80.52802002 51.64404297 81.42138672 C49.80431533 83.1878968 48.13038193 85.03930693 46.5 87 C42.65543432 91.5507104 38.36827888 95.65655561 34.13745117 99.84301758 C30.37278305 103.583355 26.7485498 107.38365182 23.33203125 111.44921875 C22.89246094 111.96097656 22.45289063 112.47273438 22 113 C21.52949219 113.56332031 21.05898437 114.12664062 20.57421875 114.70703125 C19 116 19 116 15 116 C15.0721875 115.37996094 15.144375 114.75992188 15.21875 114.12109375 C17.25137119 94.72649992 15.78262964 77.2220349 3.3125 61.3828125 C-0.12349248 57.52410217 -4.09282213 55.37674895 -8.6875 53.125 C-9.44611328 52.73570313 -10.20472656 52.34640625 -10.98632812 51.9453125 C-21.29854962 46.70273564 -33.80144472 46.09004127 -45.11328125 48.8359375 C-57.77096525 53.03169927 -67.2641425 60.31569264 -73.62109375 71.97265625 C-77.22180871 79.21726021 -79.25357464 85.95260163 -80 94 C-80.185625 95.9490625 -80.185625 95.9490625 -80.375 97.9375 C-79.96247716 109.70653407 -73.42346437 122.36480345 -67 132 C-66.59942273 134.99584143 -66.58737189 136.41967911 -68.35766602 138.90942383 C-68.98342529 139.50263428 -69.60918457 140.09584473 -70.25390625 140.70703125 C-70.94419922 141.37669922 -71.63449219 142.04636719 -72.34570312 142.73632812 C-73.07724609 143.42146484 -73.80878906 144.10660156 -74.5625 144.8125 C-80.94048362 150.91038919 -86.82458763 157.19351199 -92.4765625 163.96875 C-93.18554688 164.8040625 -93.89453125 165.639375 -94.625 166.5 C-95.33914062 167.3559375 -96.05328125 168.211875 -96.7890625 169.09375 C-99 171 -99 171 -101.5234375 171.59375 C-106.0917479 170.49850839 -107.66654992 166.52023227 -110.078125 162.7578125 C-112.42951201 158.86447065 -114.72188802 154.93655479 -117 151 C-117.55107422 150.05809814 -117.55107422 150.05809814 -118.11328125 149.09716797 C-132.52237465 124.26768021 -135.28551625 96.8059422 -128.49609375 68.93115234 C-122.14301119 45.43062934 -106.17396627 22.40524617 -85 10 C-58.7128671 -4.61427513 -29.12230678 -9.00078252 0 0 Z " fill="#FEFEFE" transform="translate(137,24)"/>
<path d="M0 0 C1.14233301 33.36491118 -5.74650381 64.22573149 -27.60771179 90.30912781 C-28.65423623 91.58008525 -29.67669967 92.87091515 -30.68684387 94.17097473 C-35.44856676 100.27715902 -40.54815761 105.80235153 -46.06640625 111.2265625 C-46.90413071 112.05908539 -47.74185516 112.89160828 -48.60496521 113.74935913 C-51.25268858 116.37945476 -53.90706399 119.00269346 -56.5625 121.625 C-59.22060768 124.25532595 -61.87716253 126.88717435 -64.53074646 129.52206421 C-66.17298726 131.15221873 -67.81789197 132.77969577 -69.46595764 134.40396118 C-73.63689503 138.53879319 -77.63996011 142.75098117 -81.46238708 147.21102905 C-84.0538978 150.22618152 -86.7500472 153.12961131 -89.5 156 C-90.02980469 156.58394531 -90.55960937 157.16789063 -91.10546875 157.76953125 C-93.83112386 160.58758145 -95.50797516 161.87042965 -99.3671875 162.88671875 C-104.94122854 161.52617325 -107.80774758 157.93661635 -111.625 153.8125 C-112.73101562 152.65911133 -112.73101562 152.65911133 -113.859375 151.48242188 C-115.28725636 149.9918468 -116.70843872 148.49481872 -118.12207031 146.99072266 C-120.36694208 144.61101849 -122.67258924 142.29882852 -125 140 C-133 132 -133 132 -135.3203125 129.67578125 C-137.3101852 127.68880924 -139.30517401 125.70768921 -141.3046875 123.73046875 C-152.94030671 112.19824855 -152.94030671 112.19824855 -157.6640625 106.52734375 C-159.0947518 104.80864306 -159.0947518 104.80864306 -161.5 102.9375 C-163 101 -163 101 -162.87597656 97.69555664 C-161.86265216 93.42055902 -160.62954167 91.93773908 -157.484375 88.93359375 C-156.56269531 88.03576172 -155.64101562 87.13792969 -154.69140625 86.21289062 C-153.71155195 85.28710965 -152.73107825 84.36198382 -151.75 83.4375 C-149.84401889 81.60792437 -147.94582963 79.77048241 -146.046875 77.93359375 C-144.70979492 76.65524658 -144.70979492 76.65524658 -143.34570312 75.35107422 C-141.42061906 73.42158218 -139.77007245 71.52089035 -138.140625 69.34765625 C-136 67 -136 67 -133.5546875 66.28125 C-129.81909823 67.33224148 -127.69159858 69.73906796 -125.125 72.5 C-124.59398682 73.05171875 -124.06297363 73.6034375 -123.51586914 74.171875 C-120.19982158 77.64143859 -116.9792371 81.18980122 -113.8671875 84.84375 C-111.32277542 87.78206688 -108.69326169 90.63904144 -106.0625 93.5 C-105.56484131 94.04140625 -105.06718262 94.5828125 -104.55444336 95.140625 C-103.3703585 96.4277549 -102.18528565 97.71397579 -101 99 C-96.94064096 97.38206931 -94.19477051 94.49693068 -91.1875 91.4375 C-90.65850098 90.90608398 -90.12950195 90.37466797 -89.58447266 89.82714844 C-85.8073556 85.97492811 -82.43966038 81.94519516 -79.3046875 77.546875 C-78.87414062 77.03640625 -78.44359375 76.5259375 -78 76 C-77.34 76 -76.68 76 -76 76 C-75.505 74.515 -75.505 74.515 -75 73 C-73.36655578 71.30076031 -71.69391554 69.63896482 -70 68 C-68.68139677 66.55328135 -67.36297187 65.1063477 -66.05566406 63.64941406 C-61.86420161 58.97926925 -57.6228668 54.66529326 -52.8125 50.62109375 C-50.30714498 48.38031286 -48.21561087 45.86247614 -46.046875 43.30078125 C-43.47801926 40.41326974 -40.75072085 37.71310343 -38 35 C-34.12299548 31.17101343 -30.43603487 27.28328437 -26.91015625 23.125 C-24.36768006 20.29656023 -21.65246075 17.66175049 -18.9375 15 C-14.9125271 11.05011524 -11.27957785 7.1001094 -8.0859375 2.42578125 C-5.86041567 -0.49621683 -3.41575748 -0.08988835 0 0 Z " fill="#1A69EE" transform="translate(205,105)"/>
<path d="M0 0 C2.71408406 0.02378839 5.42719404 0.02051625 8.14135742 0.01391602 C9.88680593 0.0194885 11.63225035 0.02659567 13.37768555 0.03540039 C14.57945183 0.03403328 14.57945183 0.03403328 15.80549622 0.03263855 C21.41292211 0.10282267 26.80402549 0.47853909 31.4987793 3.85180664 C39.66542131 12.48511392 40.53980519 20.36278281 40.62768555 31.85180664 C40.63575729 32.86281433 40.64382904 33.87382202 40.65214539 34.91546631 C40.66593952 37.05031645 40.67668243 39.18518822 40.68457031 41.32006836 C40.69608865 43.49038208 40.716538 45.66066751 40.74609375 47.83081055 C40.78898717 50.98383634 40.80496875 54.13602448 40.81518555 57.28930664 C40.83269363 58.24693909 40.85020172 59.20457153 40.86824036 60.19122314 C40.84404068 67.80833105 39.24236098 74.66557345 34.49487305 80.77368164 C33.86194336 81.28930664 33.22901367 81.80493164 32.5769043 82.33618164 C31.95170898 82.87243164 31.32651367 83.40868164 30.68237305 83.96118164 C24.65710253 87.57429105 18.40971218 87.64404077 11.58081055 87.63696289 C10.65525864 87.64124802 9.72970673 87.64553314 8.77610779 87.64994812 C6.82714655 87.65566698 4.87816398 87.6562098 2.92919922 87.65185547 C-0.03561146 87.64869495 -2.99942368 87.67218737 -5.96411133 87.69750977 C-7.86580279 87.69978311 -9.76749691 87.70048609 -11.66918945 87.69946289 C-12.5465123 87.70867264 -13.42383514 87.71788239 -14.32774353 87.72737122 C-21.42715584 87.67458256 -28.20308017 86.46929948 -33.4230957 81.21118164 C-33.96579102 80.69297852 -34.50848633 80.17477539 -35.06762695 79.64086914 C-39.70417777 72.71538817 -40.05820579 65.11926682 -40.0090332 57.01977539 C-40.01190338 55.96387711 -40.01477356 54.90797882 -40.01773071 53.82008362 C-40.01976133 51.60059061 -40.01430211 49.3810793 -40.00170898 47.16162109 C-39.98562549 43.77994529 -40.00160087 40.39946162 -40.02075195 37.01782227 C-40.01876966 34.85180403 -40.01492627 32.68578652 -40.0090332 30.51977539 C-40.0151059 29.51748398 -40.02117859 28.51519257 -40.0274353 27.48252869 C-39.94113627 18.80046872 -38.10213265 11.54800511 -31.85742188 5.16894531 C-23.57329361 -1.58851974 -10.10048683 -0.09481 0 0 Z M-14.6105957 23.33618164 C-14.79580037 26.25635 -14.91920349 29.15470909 -14.99731445 32.07836914 C-15.0228389 32.95768097 -15.04836334 33.8369928 -15.07466125 34.74295044 C-15.12676927 36.60745239 -15.17618397 38.47203122 -15.22314453 40.33666992 C-15.29760631 43.19241245 -15.38827589 46.04734581 -15.47973633 48.90258789 C-15.52826111 50.71115512 -15.575819 52.5197486 -15.62231445 54.32836914 C-15.65137375 55.1846994 -15.68043304 56.04102966 -15.71037292 56.92330933 C-15.84133558 61.92634693 -15.84133558 61.92634693 -13.6105957 66.33618164 C-9.20684354 67.9253694 -4.30457149 67.77432006 0.3269043 68.02368164 C1.22086914 68.08362305 2.11483398 68.14356445 3.03588867 68.20532227 C4.33816406 68.27589844 4.33816406 68.27589844 5.66674805 68.34790039 C6.45299561 68.39390381 7.23924316 68.43990723 8.04931641 68.48730469 C10.81092324 68.30895992 12.88219295 67.47249169 15.3894043 66.33618164 C15.48830462 60.42802821 15.56088801 54.52035692 15.60913086 48.61157227 C15.62924234 46.60172126 15.65653544 44.59192873 15.69116211 42.58227539 C15.73970063 39.69280568 15.76237752 36.80410973 15.7800293 33.91430664 C15.80067444 33.01625305 15.82131958 32.11819946 15.84259033 31.19293213 C15.88281106 26.15216326 15.88281106 26.15216326 13.55249023 21.80004883 C9.41702308 19.00137377 5.39211312 19.12110609 0.5769043 19.08618164 C-0.47207031 19.05524414 -0.47207031 19.05524414 -1.54223633 19.02368164 C-6.47971955 18.98673135 -10.97663863 19.70222456 -14.6105957 23.33618164 Z " fill="#FEFEFE" transform="translate(475.610595703125,78.663818359375)"/>
<path d="M0 0 C8.70375 -0.04125 17.4075 -0.0825 26.375 -0.125 C29.10313965 -0.14320801 31.8312793 -0.16141602 34.64208984 -0.18017578 C36.83170373 -0.18602318 39.02131982 -0.19111815 41.2109375 -0.1953125 C42.32573486 -0.20554443 43.44053223 -0.21577637 44.58911133 -0.22631836 C62.73555848 -0.23032331 62.73555848 -0.23032331 69.59765625 6.421875 C76.18934793 13.8398233 75.24076012 22.53957633 75.3125 31.9375 C75.35600586 33.83145508 75.35600586 33.83145508 75.40039062 35.76367188 C75.4797802 47.33622883 75.4797802 47.33622883 71 52 C69.26171875 53.46875 69.26171875 53.46875 67.6875 54.5 C66.3571875 55.7375 66.3571875 55.7375 65 57 C65.10680196 63.13221277 68.54769416 67.45045098 71.84960938 72.34570312 C74.65542087 76.72781321 75.49103465 79.64011477 75 85 C71.10473501 85.1746354 67.2104781 85.28096492 63.3125 85.375 C62.20970703 85.42527344 61.10691406 85.47554688 59.97070312 85.52734375 C51.797179 85.67550431 51.797179 85.67550431 48.03125 82.484375 C46.98364258 80.83154297 46.98364258 80.83154297 46 79 C45.60127686 78.36336426 45.20255371 77.72672852 44.79174805 77.07080078 C43.53060879 75.03473275 42.35365995 72.96671452 41.1875 70.875 C40.78080078 70.17246094 40.37410156 69.46992188 39.95507812 68.74609375 C39.57158203 68.06417969 39.18808594 67.38226563 38.79296875 66.6796875 C38.4477417 66.06851074 38.10251465 65.45733398 37.74682617 64.82763672 C37 63 37 63 37 59 C32.38 59 27.76 59 23 59 C23 67.25 23 75.5 23 84 C15.41 84 7.82 84 0 84 C0 56.28 0 28.56 0 0 Z M24 20 C24 26.93 24 33.86 24 41 C29.011875 41.0928125 29.011875 41.0928125 34.125 41.1875 C35.16672363 41.21481201 36.20844727 41.24212402 37.28173828 41.27026367 C42.56400483 41.31750841 46.51887188 41.15148191 51 38 C52.76253267 32.71240199 52.86333474 27.11517012 50.75 21.9375 C48.67601784 19.64130547 48.00429626 19.49406201 45 19 C42.54312194 18.905718 40.08368152 18.87009245 37.625 18.875 C36.33851563 18.87242188 35.05203125 18.86984375 33.7265625 18.8671875 C29.59988153 18.93393608 29.59988153 18.93393608 24 20 Z " fill="#FEFEFE" transform="translate(353,80)"/>
<path d="M0 0 C13.303125 -0.12375 13.303125 -0.12375 26.875 -0.25 C29.65534668 -0.28641602 32.43569336 -0.32283203 35.30029297 -0.36035156 C37.53091665 -0.37204594 39.76154894 -0.38223599 41.9921875 -0.390625 C43.12857666 -0.41108887 44.26496582 -0.43155273 45.43579102 -0.45263672 C54.98813039 -0.45677641 63.4744734 1.55614577 70.61035156 8.25878906 C75.41974468 14.28489443 75.44562489 22.20868089 75.3125 29.5625 C75.31572266 30.45646484 75.31894531 31.35042969 75.32226562 32.27148438 C75.2457209 41.78390641 73.64757939 50.35242061 66.6875 57.3125 C61.17154637 60.77600577 55.47399933 61.29130157 49.09765625 61.1953125 C48.3750914 61.1924826 47.65252655 61.18965271 46.9080658 61.18673706 C44.62603384 61.17564386 42.34441103 61.15056088 40.0625 61.125 C38.50456301 61.11495611 36.94661979 61.10583274 35.38867188 61.09765625 C31.59216784 61.07745133 27.79653571 61.03828439 24 61 C23.67 68.59 23.34 76.18 23 84 C15.41 84 7.82 84 0 84 C0 56.28 0 28.56 0 0 Z M24 19 C23.67 26.59 23.34 34.18 23 42 C26.526875 41.9175 30.05375 41.835 33.6875 41.75 C34.79053467 41.73420898 35.89356934 41.71841797 37.0300293 41.70214844 C41.31579214 41.5531875 44.31723136 41.36386055 48.14453125 39.32421875 C50.4327268 36.45795275 50.77953779 34.70471948 51 31.0625 C51.0825 30.04285156 51.165 29.02320313 51.25 27.97265625 C50.95661617 24.48413918 50.18266121 22.7234545 48 20 C45.06027375 18.97703865 42.3284184 18.88251014 39.234375 18.90234375 C38.43225586 18.90484131 37.63013672 18.90733887 36.80371094 18.90991211 C35.79598633 18.91901611 34.78826172 18.92812012 33.75 18.9375 C30.5325 18.958125 27.315 18.97875 24 19 Z " fill="#FFFEFE" transform="translate(270,80)"/>
<path d="M0 0 C1.53527344 0.00290039 1.53527344 0.00290039 3.1015625 0.00585938 C4.70257812 0.02422852 4.70257812 0.02422852 6.3359375 0.04296875 C7.41101563 0.04361328 8.48609375 0.04425781 9.59375 0.04492188 C17.57071429 0.09024554 17.57071429 0.09024554 18.7109375 1.23046875 C18.67632386 7.64668641 16.8731212 13.30846873 14.53515625 19.20703125 C14.21356537 20.04362778 13.89197449 20.8802243 13.56063843 21.74217224 C12.51671115 24.45065459 11.45786193 27.1530151 10.3984375 29.85546875 C9.67346006 31.72676914 8.94942819 33.59843612 8.22631836 35.47045898 C6.7662269 39.24571197 5.30020474 43.01857553 3.82910156 46.78955078 C1.87421046 51.80373677 -0.05892343 56.82601134 -1.984375 61.8515625 C-2.80596412 63.99198841 -3.62798412 66.13224806 -4.45028687 68.2723999 C-4.96649442 69.6160372 -5.4823046 70.95982723 -5.99771118 72.30377197 C-6.7053425 74.14628807 -7.41700427 75.98725477 -8.12890625 77.828125 C-8.52456787 78.85429932 -8.92022949 79.88047363 -9.32788086 80.93774414 C-10.2890625 83.23046875 -10.2890625 83.23046875 -11.2890625 84.23046875 C-13.28871232 84.31804878 -15.2914236 84.33743451 -17.29296875 84.328125 C-19.11538086 84.32329102 -19.11538086 84.32329102 -20.97460938 84.31835938 C-22.25400391 84.30998047 -23.53339844 84.30160156 -24.8515625 84.29296875 C-26.13482422 84.28845703 -27.41808594 84.28394531 -28.74023438 84.27929688 C-31.92322272 84.2674642 -35.10612012 84.25097943 -38.2890625 84.23046875 C-40.5151925 79.95729452 -42.31842756 75.67213157 -43.97265625 71.1484375 C-46.31954027 64.79278907 -48.73259863 58.46640361 -51.19921875 52.15625 C-51.70659073 50.85770584 -51.70659073 50.85770584 -52.22421265 49.53292847 C-53.26582173 46.86927867 -54.30860544 44.206091 -55.3515625 41.54296875 C-56.05284491 39.75069429 -56.75401722 37.95837674 -57.45507812 36.16601562 C-57.79735443 35.29129608 -58.13963074 34.41657654 -58.49227905 33.51535034 C-59.16548101 31.79239265 -59.83724241 30.06887133 -60.50747681 28.34475708 C-61.94236585 24.65534686 -63.38635865 20.97269976 -64.89794922 17.31396484 C-65.35572754 16.18684082 -65.81350586 15.0597168 -66.28515625 13.8984375 C-66.8738147 12.48534302 -66.8738147 12.48534302 -67.47436523 11.04370117 C-68.2890625 8.23046875 -68.2890625 8.23046875 -68.2890625 1.23046875 C-60.0390625 1.23046875 -51.7890625 1.23046875 -43.2890625 1.23046875 C-39.38111477 9.9995222 -35.96090348 18.79082699 -32.84130859 27.86914062 C-30.48400907 34.72338142 -27.95799267 41.49049764 -25.2890625 48.23046875 C-22.6832747 45.62468095 -22.05444806 43.19016996 -20.828125 39.7109375 C-20.5962851 39.05652176 -20.36444519 38.40210602 -20.12557983 37.7278595 C-19.63374571 36.33588449 -19.14469517 34.94292331 -18.65820312 33.54907227 C-17.92946507 31.46207933 -17.1921385 29.37829517 -16.453125 27.29492188 C-13.81554207 19.81641881 -11.36591869 12.34934171 -9.25927734 4.70043945 C-7.44192462 0.0738271 -4.46843132 -0.01950111 0 0 Z " fill="#1B69ED" transform="translate(666.2890625,79.76953125)"/>
<path d="M0 0 C0.98685791 0.00193359 1.97371582 0.00386719 2.99047852 0.00585938 C14.19282976 0.06931381 25.37518687 0.57399777 36.5625 1.125 C36.5625 7.395 36.5625 13.665 36.5625 20.125 C22.0425 20.455 7.5225 20.785 -7.4375 21.125 C-7.1075 35.315 -6.7775 49.505 -6.4375 64.125 C7.7525 64.455 21.9425 64.785 36.5625 65.125 C36.5625 71.395 36.5625 77.665 36.5625 84.125 C25.41848622 85.74594746 14.47435885 86.36363789 3.22845459 86.42456055 C1.71006602 86.4331365 0.19169694 86.4467484 -1.32659912 86.46557617 C-19.02458512 86.66148231 -19.02458512 86.66148231 -25.6796875 81.328125 C-26.21851563 80.68359375 -26.75734375 80.0390625 -27.3125 79.375 C-28.14394531 78.42367187 -28.14394531 78.42367187 -28.9921875 77.453125 C-32.94157617 71.09140704 -32.74484596 64.29557034 -32.73828125 57.0390625 C-32.74256638 55.98270599 -32.7468515 54.92634949 -32.75126648 53.83798218 C-32.75699105 51.61074538 -32.75752391 49.3834899 -32.75317383 47.15625 C-32.75001668 43.76790112 -32.77348766 40.38042847 -32.79882812 36.9921875 C-32.80110174 34.82031359 -32.80180433 32.64843736 -32.80078125 30.4765625 C-32.809991 29.47315826 -32.81920074 28.46975403 -32.82868958 27.4359436 C-32.77988226 19.93129637 -31.78390677 12.90595325 -27.1875 6.75 C-19.65191792 -0.44305562 -9.78958999 -0.04680415 0 0 Z " fill="#1C69EB" transform="translate(556.4375,79.875)"/>
<path d="M0 0 C16.08757198 -0.60244722 16.08757198 -0.60244722 22.875 4.375 C24.34971457 6.50514327 24.65638105 8.45721976 25 11 C25.804375 10.34 26.60875 9.68 27.4375 9 C31.42304726 6.33981288 35.34862167 6.2321254 40 7 C42.5625 8.5 42.5625 8.5 44 10 C44.33 9.34 44.66 8.68 45 8 C47.31 8 49.62 8 52 8 C52.66 9.32 53.32 10.64 54 12 C54.5259375 11.01 54.5259375 11.01 55.0625 10 C57 8 57 8 60.6875 7.75 C61.780625 7.8325 62.87375 7.915 64 8 C64.28875 8.639375 64.5775 9.27875 64.875 9.9375 C65.82823451 12.15206079 65.82823451 12.15206079 68 13 C68.33 11.35 68.66 9.7 69 8 C70.98 8 72.96 8 75 8 C75.44763271 15.60975602 74.44359692 24.11280617 71 31 C68.36 31 65.72 31 63 31 C62.34 29.02 61.68 27.04 61 25 C60.01 26.98 59.02 28.96 58 31 C55.36 31 52.72 31 50 31 C49.01 28.03 48.02 25.06 47 22 C46.608125 23.093125 46.21625 24.18625 45.8125 25.3125 C44.69552606 27.8552886 43.97538147 29.02244631 41.875 30.9375 C37.80710922 32.44085094 34.27801509 32.78329854 30 32 C26.63081727 30.03974823 24.60822075 28.58960108 23.19140625 24.88671875 C22.69208181 22.94796249 22.33455471 20.97387281 22 19 C21.43796875 19.31710938 20.8759375 19.63421875 20.296875 19.9609375 C17.84803683 21.06874525 15.91612145 21.38975399 13.25 21.625 C12.45078125 21.69976562 11.6515625 21.77453125 10.828125 21.8515625 C10.22484375 21.90054688 9.6215625 21.94953125 9 22 C9.020625 23.299375 9.04125 24.59875 9.0625 25.9375 C9.08399454 27.29165633 9.07148199 28.64756083 9 30 C8 31 8 31 6.15234375 31.09765625 C4.1015625 31.06510417 2.05078125 31.03255208 0 31 C-1.37262276 28.25475448 -1.1296881 26.03780705 -1.1328125 22.96875 C-1.13410156 21.76605469 -1.13539063 20.56335938 -1.13671875 19.32421875 C-1.13285156 18.06222656 -1.12898438 16.80023438 -1.125 15.5 C-1.12886719 14.23800781 -1.13273437 12.97601563 -1.13671875 11.67578125 C-1.13542969 10.47308594 -1.13414062 9.27039063 -1.1328125 8.03125 C-1.13168457 6.92330078 -1.13055664 5.81535156 -1.12939453 4.67382812 C-1 2 -1 2 0 0 Z M7 8 C7 9.98 7 11.96 7 14 C9.64 14 12.28 14 15 14 C14.67 12.02 14.34 10.04 14 8 C11.69 8 9.38 8 7 8 Z M45 12 C46 14 46 14 46 14 Z M35 14 C33.19546354 15.6549514 33.19546354 15.6549514 32 18 C32.22197813 20.6984589 32.22197813 20.6984589 33 23 C34.98 23.495 34.98 23.495 37 24 C38.36952673 21.26094655 38.12621361 19.02912668 38 16 C37.67 15.34 37.34 14.68 37 14 C36.34 14 35.68 14 35 14 Z " fill="#2C6AD3" transform="translate(323,184)"/>
<path d="M0 0 C2.31 0 4.62 0 7 0 C7 10.23 7 20.46 7 31 C-8 31 -8 31 -13 27 C-13.433125 27.639375 -13.86625 28.27875 -14.3125 28.9375 C-16.35627786 31.43545072 -17.93276236 31.86009993 -21.0859375 32.2734375 C-25.4895784 32.46882088 -27.35617189 32.50684341 -30.9375 29.6875 C-35.00402789 24.38869094 -35.00402789 24.38869094 -34.9765625 21.73828125 C-34.86054688 20.93777344 -34.74453125 20.13726562 -34.625 19.3125 C-34.45871094 18.10013672 -34.45871094 18.10013672 -34.2890625 16.86328125 C-34.19367188 16.24839844 -34.09828125 15.63351563 -34 15 C-35.65 15.33 -37.3 15.66 -39 16 C-39 20.95 -39 25.9 -39 31 C-41.64 31 -44.28 31 -47 31 C-47 23.41 -47 15.82 -47 8 C-42.71 8 -38.42 8 -34 8 C-33.67 9.32 -33.34 10.64 -33 12 C-32.38125 11.0409375 -32.38125 11.0409375 -31.75 10.0625 C-28.97241117 6.78891316 -26.74094923 7.06735902 -22.5625 6.6875 C-18.40348083 7.05232624 -16.87407623 8.03883055 -14 11 C-14 11.66 -14 12.32 -14 13 C-13.34 13 -12.68 13 -12 13 C-11.566875 12.071875 -11.566875 12.071875 -11.125 11.125 C-10 9 -10 9 -8 7 C-5.31160615 6.73008094 -2.70858064 6.91262643 0 7 C0 4.69 0 2.38 0 0 Z M-5 14 C-5 16.97 -5 19.94 -5 23 C-3.35 23 -1.7 23 0 23 C0.33 20.69 0.66 18.38 1 16 C-0.98 15.34 -2.96 14.68 -5 14 Z M-25 16 C-21 17 -21 17 -21 17 Z " fill="#316BCF" transform="translate(468,184)"/>
<path d="M0 0 C3.125 1.5 3.125 1.5 5 3 C5.33 2.34 5.66 1.68 6 1 C8.64 1 11.28 1 14 1 C14.67305018 2.60149886 15.33822227 4.20631029 16 5.8125 C16.37125 6.70582031 16.7425 7.59914062 17.125 8.51953125 C18 11 18 11 18 14 C18.66 14 19.32 14 20 14 C20.20496094 13.22914063 20.40992188 12.45828125 20.62109375 11.6640625 C20.89050781 10.66117188 21.15992188 9.65828125 21.4375 8.625 C21.70433594 7.62726563 21.97117187 6.62953125 22.24609375 5.6015625 C23 3 23 3 24 1 C26.97 1 29.94 1 33 1 C32.53342734 8.17355457 30.78394085 13.90030805 28 20.5 C27.63132812 21.40492188 27.26265625 22.30984375 26.8828125 23.2421875 C24.17426658 29.82573342 24.17426658 29.82573342 23 31 C20.32941149 31.14115161 17.67567762 31.04247107 15 31 C14.04090449 28.77115855 13.08270163 26.54194032 12.125 24.3125 C11.85558594 23.68666016 11.58617187 23.06082031 11.30859375 22.41601562 C9.82553722 18.96157906 8.37772516 15.49781679 7 12 C6.0925 12.226875 5.185 12.45375 4.25 12.6875 C1 13 1 13 -1.375 11.6875 C-3 10 -3 10 -3 8 C-6.72614153 9.11854586 -6.72614153 9.11854586 -9 12 C-9.09499503 13.49756871 -9.12987198 14.99942932 -9.125 16.5 C-9.12757813 17.2940625 -9.13015625 18.088125 -9.1328125 18.90625 C-9.13277996 21.05918534 -9.13277996 21.05918534 -8 23 C-5.52733235 22.65555119 -5.52733235 22.65555119 -3 22 C-2.67 21.34 -2.34 20.68 -2 20 C0.64 20 3.28 20 6 20 C6.49065421 26.37850467 6.49065421 26.37850467 4.125 29.375 C-0.30999792 32.766469 -4.57229866 32.5836238 -10 32 C-14.05805146 30.15543115 -15.58825073 28.68624879 -17.875 24.875 C-19.92464714 19.18966924 -19.92464714 12.81033076 -17.875 7.125 C-13.57005013 -0.04991645 -7.8436035 -1.13543012 0 0 Z " fill="#296AD9" transform="translate(506,184)"/>
<path d="M0 0 C2.62153555 2.28327289 3.87862774 3.8738854 4.1328125 7.38671875 C4.10960937 8.37285156 4.08640625 9.35898438 4.0625 10.375 C4.04445313 11.36886719 4.02640625 12.36273438 4.0078125 13.38671875 C3.98460937 14.14597656 3.96140625 14.90523437 3.9375 15.6875 C4.081875 14.388125 4.22625 13.08875 4.375 11.75 C4.8125 7.8125 4.8125 7.8125 5.9375 6.6875 C8.60808851 6.54634839 11.26182238 6.64502893 13.9375 6.6875 C13.9375 11.6375 13.9375 16.5875 13.9375 21.6875 C15.2575 21.6875 16.5775 21.6875 17.9375 21.6875 C17.9375 16.7375 17.9375 11.7875 17.9375 6.6875 C20.5775 6.6875 23.2175 6.6875 25.9375 6.6875 C27.76421197 10.34092394 27.12220722 14.66589159 27.125 18.6875 C27.13724609 19.615625 27.14949219 20.54375 27.16210938 21.5 C27.16404297 22.386875 27.16597656 23.27375 27.16796875 24.1875 C27.17207764 25.0021875 27.17618652 25.816875 27.18041992 26.65625 C26.9375 28.6875 26.9375 28.6875 24.9375 30.6875 C21.85546875 30.98828125 21.85546875 30.98828125 18.125 31 C16.90167969 31.01675781 15.67835938 31.03351563 14.41796875 31.05078125 C10.73149482 30.66599778 8.82146531 29.98378936 5.9375 27.6875 C5.625 25 5.625 25 5.9375 22.6875 C5.2775 22.6875 4.6175 22.6875 3.9375 22.6875 C3.834375 23.285625 3.73125 23.88375 3.625 24.5 C2.8178027 27.06835503 2.02565943 28.01158252 -0.0625 29.6875 C-2.05541992 30.02807617 -2.05541992 30.02807617 -4.29296875 29.98046875 C-5.01637451 29.97297607 -5.73978027 29.9654834 -6.48510742 29.95776367 C-7.39752197 29.93045166 -8.30993652 29.90313965 -9.25 29.875 C-12.158125 29.813125 -15.06625 29.75125 -18.0625 29.6875 C-18.0625 19.7875 -18.0625 9.8875 -18.0625 -0.3125 C-12.07525716 -1.80931071 -5.77139921 -2.47345681 0 0 Z M-11.0625 5.6875 C-11.0625 7.3375 -11.0625 8.9875 -11.0625 10.6875 C-8.7525 10.6875 -6.4425 10.6875 -4.0625 10.6875 C-4.3925 9.0375 -4.7225 7.3875 -5.0625 5.6875 C-7.0425 5.6875 -9.0225 5.6875 -11.0625 5.6875 Z M-10.0625 17.6875 C-10.0625 19.3375 -10.0625 20.9875 -10.0625 22.6875 C-7.7525 22.6875 -5.4425 22.6875 -3.0625 22.6875 C-3.0625 21.0375 -3.0625 19.3875 -3.0625 17.6875 C-5.3725 17.6875 -7.6825 17.6875 -10.0625 17.6875 Z " fill="#306BD1" transform="translate(568.0625,185.3125)"/>
<path d="M0 0 C4.74906858 4.02077691 8.07836206 7.17993583 8.93359375 13.56640625 C8.96037271 18.57407136 8.53852839 22.05859587 5.6328125 26.3203125 C0.76043704 30.98084555 -3.0870177 33.36320702 -9.8046875 33.6328125 C-15.65672117 33.46782979 -19.0081239 31.71026391 -23.1171875 27.5078125 C-26.93105412 22.10483479 -27.83923031 17.95101566 -26.90625 11.49609375 C-25.55809873 6.05464262 -21.99057645 2.2624691 -17.3671875 -0.6796875 C-11.39145273 -3.01198905 -5.50696283 -3.90758089 0 0 Z " fill="#1A69EE" transform="translate(187.3671875,27.6796875)"/>
<path d="M0 0 C2.31 0 4.62 0 7 0 C7.66 4.29 8.32 8.58 9 13 C9.99 11.68 10.98 10.36 12 9 C14.26171875 8.390625 14.26171875 8.390625 16.6875 8.25 C17.49574219 8.19328125 18.30398438 8.1365625 19.13671875 8.078125 C20.05904297 8.03945312 20.05904297 8.03945312 21 8 C21.66 5.36 22.32 2.72 23 0 C24.98 0 26.96 0 29 0 C29 10.56 29 21.12 29 32 C24.91625 32.0928125 24.91625 32.0928125 20.75 32.1875 C19.47334473 32.22846802 19.47334473 32.22846802 18.17089844 32.27026367 C14.62915847 32.30927147 12.55880184 32.33168146 9.453125 30.48828125 C8.97359375 29.99714844 8.4940625 29.50601563 8 29 C7.67 29.99 7.34 30.98 7 32 C4.69 32 2.38 32 0 32 C0 21.44 0 10.88 0 0 Z M17 16 C16.67 18.97 16.34 21.94 16 25 C17.66611905 25.042721 19.33382885 25.04063832 21 25 C22.20561184 24.01732141 22.20561184 24.01732141 22.09765625 22.15234375 C22.08605469 21.42144531 22.07445312 20.69054687 22.0625 19.9375 C22.041875 18.638125 22.02125 17.33875 22 16 C20.35 16 18.7 16 17 16 Z " fill="#2F69CF" transform="translate(607,183)"/>
<path d="M0 0 C2.97 0 5.94 0 9 0 C10.49652096 3.32580253 11.96894434 6.66176574 13.4375 10 C14.06881836 11.40185547 14.06881836 11.40185547 14.71289062 12.83203125 C17.10245298 18.29934992 18.72986754 23.01552694 19 29 C18 30 18 30 14.4375 30.0625 C13.303125 30.041875 12.16875 30.02125 11 30 C10.67 28.02 10.34 26.04 10 24 C6.7 24 3.4 24 0 24 C-0.33 25.98 -0.66 27.96 -1 30 C-3.64 30 -6.28 30 -9 30 C-8.52701886 22.68005377 -6.66909448 16.71694951 -3.9375 9.9375 C-3.56044922 8.97650391 -3.18339844 8.01550781 -2.79492188 7.02539062 C-1.87293344 4.67957196 -0.94121118 2.33815662 0 0 Z M4 14 C4 14.99 4 15.98 4 17 C4.66 17 5.32 17 6 17 C5.67 16.01 5.34 15.02 5 14 C4.67 14 4.34 14 4 14 Z " fill="#1C6AEA" transform="translate(279,185)"/>
<path d="M0 0 C0.66 0.66 1.32 1.32 2 2 C1.34 2 0.68 2 0 2 C0.06712759 9.42016322 0.15698496 16.83980485 0.26245117 24.25952148 C0.29565129 26.78224481 0.32369842 29.30504154 0.34643555 31.82788086 C0.38007096 35.45979006 0.43239367 39.09102957 0.48828125 42.72265625 C0.49786613 44.40742821 0.49786613 44.40742821 0.50764465 46.12623596 C0.65065283 53.78861496 1.3119133 58.98409785 6.5625 64.875 C9.97939037 67.8538275 11.65159689 68.13166156 16.09228516 68.20532227 C17.15323395 68.22526749 18.21418274 68.24521271 19.30728149 68.26576233 C20.45626923 68.28247482 21.60525696 68.29918732 22.7890625 68.31640625 C24.54940323 68.3475779 24.54940323 68.3475779 26.3453064 68.37937927 C30.10514304 68.44491983 33.86505122 68.50378076 37.625 68.5625 C40.16927832 68.60568092 42.71354933 68.64929507 45.2578125 68.69335938 C51.50513447 68.80060586 57.7525286 68.90186061 64 69 C64 64.05 64 59.1 64 54 C59.38 54 54.76 54 50 54 C50 53.34 50 52.68 50 52 C55.28 52 60.56 52 66 52 C66 58.27 66 64.54 66 71 C54.85598622 72.62094746 43.91185885 73.23863789 32.66595459 73.29956055 C31.14756602 73.3081365 29.62919694 73.3217484 28.11090088 73.34057617 C10.41291488 73.53648231 10.41291488 73.53648231 3.7578125 68.203125 C3.21898437 67.55859375 2.68015625 66.9140625 2.125 66.25 C1.29355469 65.29867187 1.29355469 65.29867187 0.4453125 64.328125 C-3.53563523 57.91557135 -3.29464473 51.08489448 -3.265625 43.7734375 C-3.26753845 42.7075943 -3.2694519 41.6417511 -3.27142334 40.54360962 C-3.27277956 38.29957848 -3.2691226 36.05553934 -3.26074219 33.81152344 C-3.25001369 30.37937835 -3.2606677 26.94775415 -3.2734375 23.515625 C-3.27211622 21.33072801 -3.26955448 19.14583135 -3.265625 16.9609375 C-3.26967346 15.93688812 -3.27372192 14.91283875 -3.27789307 13.85775757 C-3.27158875 12.89971222 -3.26528442 11.94166687 -3.25878906 10.95458984 C-3.25719788 10.1163266 -3.25560669 9.27806335 -3.25396729 8.41439819 C-2.93340786 5.3669266 -2.22876635 2.22876635 0 0 Z " fill="#2F6BCD" transform="translate(527,93)"/>
<path d="M0 0 C3.44312714 2.1244827 4.71617547 3.14852641 6 7 C6.47469459 14.05061082 6.47469459 14.05061082 5 17 C4.9603287 18.66619446 4.95615553 20.33391013 5 22 C-0.02494685 25.01496811 -3.28200075 25.63533325 -9 25 C-12.5507375 22.83868152 -14.49653376 20.84750679 -16 17 C-16.23078192 11.83817774 -15.7984375 7.33072916 -13.125 2.875 C-9.32448316 -0.47839721 -4.8790416 -0.70379937 0 0 Z M-6 8 C-6.33 8.66 -6.66 9.32 -7 10 C-5.35 10 -3.7 10 -2 10 C-2 9.34 -2 8.68 -2 8 C-3.32 8 -4.64 8 -6 8 Z " fill="#2269E4" transform="translate(414,191)"/>
<path d="M0 0 C3.4121353 2.12310641 5.74948744 4.13477936 7 8 C7.25 11.125 7.25 11.125 7 14 C6.34 14.66 5.68 15.32 5 16 C5.32041397 18.60280568 5.32041397 18.60280568 6 21 C2.93415491 24.16474332 0.76700734 25.30355598 -3.5625 25.375 C-6.89525312 25.31723998 -9.13314687 24.7176668 -12 23 C-15.56866449 19.0489786 -15.55634795 14.76007015 -15.42578125 9.66796875 C-14.75270523 5.45043733 -13.17240578 3.80352139 -10 1 C-6.39427296 -0.20190901 -3.7897565 -0.32670315 0 0 Z M-6 7 C-6 7.99 -6 8.98 -6 10 C-4.68 10 -3.36 10 -2 10 C-2 9.01 -2 8.02 -2 7 C-3.32 7 -4.64 7 -6 7 Z " fill="#2868D7" transform="translate(653,191)"/>
<path d="M0 0 C8.25 0 16.5 0 25 0 C28.90913832 8.77172502 32.33890897 17.56404602 35.44775391 26.6496582 C37.50144519 32.64121921 39.7284682 38.51794088 42.15234375 44.37109375 C43.02440023 47.07567444 43.16897535 49.17862369 43 52 C42.01 52.495 42.01 52.495 41 53 C37.89662428 50.69236165 36.22352636 49.36857177 35.5859375 45.46484375 C35.4858455 43.54992583 35.39489832 41.63451083 35.3125 39.71875 C34.99358438 36.9441841 34.41164318 35.45906004 32.9375 33.125 C31 30 31 30 31.05859375 27.7109375 C30.9806149 24.10311613 29.70240425 21.73028239 28.125 18.5 C23 7.90338164 23 7.90338164 23 2 C16.4 2 9.8 2 3 2 C3 3.98 3 5.96 3 8 C3.66 8 4.32 8 5 8 C5 9.32 5 10.64 5 12 C5.99 12 6.98 12 8 12 C8.96070434 14.88211302 9.10581883 16.69850044 9.0625 19.6875 C9.05347656 20.49574219 9.04445313 21.30398437 9.03515625 22.13671875 C9.02355469 22.75160156 9.01195312 23.36648437 9 24 C5.48150873 20.91004293 3.90929548 18.04571128 2.25 13.6875 C1.82203125 12.59824219 1.3940625 11.50898437 0.953125 10.38671875 C0 7 0 7 0 0 Z " fill="#3C72C8" transform="translate(598,81)"/>
<path d="M0 0 C1.32 0 2.64 0 4 0 C4 9.24 4 18.48 4 28 C1.56625 28.04125 -0.8675 28.0825 -3.375 28.125 C-4.13989746 28.14320801 -4.90479492 28.16141602 -5.69287109 28.18017578 C-7.46287275 28.1948117 -9.23272455 28.09928514 -11 28 C-13.85936856 25.14063144 -13.33391034 23.04408788 -13.375 19.0625 C-13.40335937 17.81597656 -13.43171875 16.56945312 -13.4609375 15.28515625 C-13 12 -13 12 -10.9765625 10.05859375 C-10.32429688 9.70925781 -9.67203125 9.35992187 -9 9 C-7.68 9.66 -6.36 10.32 -5 11 C-5.66 11 -6.32 11 -7 11 C-7 14.63 -7 18.26 -7 22 C-5.35 22 -3.7 22 -2 22 C-1.78807779 16.80790596 -2.4087311 12.873261 -4 8 C-2.68 7.34 -1.36 6.68 0 6 C0 4.02 0 2.04 0 0 Z " fill="#1F69E6" transform="translate(470,185)"/>
<path d="M0 0 C0 6.27 0 12.54 0 19 C0.66 19.33 1.32 19.66 2 20 C1.01 20.33 0.02 20.66 -1 21 C-1.66 19.02 -2.32 17.04 -3 15 C-5.97 14.505 -5.97 14.505 -9 14 C-9 13.34 -9 12.68 -9 12 C-7.02 12 -5.04 12 -3 12 C-3 11.01 -3 10.02 -3 9 C-2.34 9 -1.68 9 -1 9 C-1.33 8.34 -1.66 7.68 -2 7 C-2.99 6.67 -3.98 6.34 -5 6 C-5 5.34 -5 4.68 -5 4 C-7.31 4 -9.62 4 -12 4 C-12 6.97 -12 9.94 -12 13 C-12.66 13 -13.32 13 -14 13 C-13.67 16.63 -13.34 20.26 -13 24 C-12.01 23.34 -11.02 22.68 -10 22 C-6.375 22.25 -6.375 22.25 -3 23 C-2.67 23.66 -2.34 24.32 -2 25 C-2.33 25.66 -2.66 26.32 -3 27 C-7.62 27 -12.24 27 -17 27 C-17 18.09 -17 9.18 -17 0 C-3.375 -1.125 -3.375 -1.125 0 0 Z " fill="#1F6AEB" transform="translate(568,186)"/>
<path d="M0 0 C2.24973447 -0.054138 4.49984383 -0.09285491 6.75 -0.125 C8.00296875 -0.14820313 9.2559375 -0.17140625 10.546875 -0.1953125 C13.73960816 -0.01472805 15.41031936 0.20230907 18 2 C19.4783226 4.95664519 19.06032783 7.74229737 19 11 C18.34 11 17.68 11 17 11 C16.896875 11.639375 16.79375 12.27875 16.6875 12.9375 C16.460625 13.618125 16.23375 14.29875 16 15 C13.11788698 15.96070434 11.30149956 16.10581883 8.3125 16.0625 C6.1778125 16.0315625 6.1778125 16.0315625 4 16 C4 19.3 4 22.6 4 26 C2.35 26 0.7 26 -1 26 C-1 19.73 -1 13.46 -1 7 C-0.01 7 0.98 7 2 7 C2.33 7.99 2.66 8.98 3 10 C6.63 10.33 10.26 10.66 14 11 C14 8.36 14 5.72 14 3 C9.05 3.66 4.1 4.32 -1 5 C-0.67 3.35 -0.34 1.7 0 0 Z " fill="#1E6AEB" transform="translate(326,187)"/>
<path d="M0 0 C0.99 0.33 1.98 0.66 3 1 C3 3.64 3 6.28 3 9 C3.99 8.67 4.98 8.34 6 8 C6.99 9.485 6.99 9.485 8 11 C10.47266765 10.65555119 10.47266765 10.65555119 13 10 C13.33 9.34 13.66 8.68 14 8 C16.64 8 19.28 8 22 8 C22.49065421 14.37850467 22.49065421 14.37850467 20.125 17.375 C15.71271293 20.74910188 11.40576185 20.62915452 6 20 C3.2412793 18.78858572 1.14122175 17.14122175 -1 15 C-0.90913549 12.46458702 -0.7629055 9.96445216 -0.5625 7.4375 C-0.51029297 6.72658203 -0.45808594 6.01566406 -0.40429688 5.28320312 C-0.27425893 3.52178001 -0.13773103 1.76083827 0 0 Z " fill="#226CE3" transform="translate(490,196)"/>
<path d="M0 0 C0.66 0 1.32 0 2 0 C1.43782063 5.13980761 0.22736624 9.61725842 -1.6875 14.4296875 C-1.95006592 15.10548859 -2.21263184 15.78128967 -2.4831543 16.47756958 C-3.0344244 17.89233917 -3.58924179 19.30573127 -4.14746094 20.71777344 C-5.00471862 22.88693979 -5.85088214 25.06018699 -6.6953125 27.234375 C-7.23374071 28.6122272 -7.77278113 29.98984035 -8.3125 31.3671875 C-8.56668701 32.01815399 -8.82087402 32.66912048 -9.08276367 33.33981323 C-10.8829851 37.8829851 -10.8829851 37.8829851 -12 39 C-13.99964982 39.08758003 -16.0023611 39.10696576 -18.00390625 39.09765625 C-19.21884766 39.09443359 -20.43378906 39.09121094 -21.68554688 39.08789062 C-22.96494141 39.07951172 -24.24433594 39.07113281 -25.5625 39.0625 C-26.84576172 39.05798828 -28.12902344 39.05347656 -29.45117188 39.04882812 C-32.63416022 39.03699545 -35.81705762 39.02051068 -39 39 C-41.30095946 34.68796574 -42.35178829 31.92503607 -42 27 C-40.0625 28.0625 -40.0625 28.0625 -38 30 C-37.25 33.6875 -37.25 33.6875 -37 37 C-36.17757812 36.98839844 -35.35515625 36.97679687 -34.5078125 36.96484375 C-27.59672029 36.90898042 -20.85811735 37.13305966 -14 38 C-14 36.68 -14 35.36 -14 34 C-13.34 34 -12.68 34 -12 34 C-12.020625 33.05125 -12.04125 32.1025 -12.0625 31.125 C-12 28 -12 28 -11 26 C-10.34 26 -9.68 26 -9 26 C-9.495 22.04 -9.495 22.04 -10 18 C-8.68 17.67 -7.36 17.34 -6 17 C-6.495 14.525 -6.495 14.525 -7 12 C-6.34 12 -5.68 12 -5 12 C-4.9175 11.319375 -4.835 10.63875 -4.75 9.9375 C-3.77667472 6.1253093 -2.04192545 3.35929671 0 0 Z " fill="#2E6BD1" transform="translate(667,125)"/>
<path d="M0 0 C2.97 0 5.94 0 9 0 C10.49652096 3.32580253 11.96894434 6.66176574 13.4375 10 C14.06881836 11.40185547 14.06881836 11.40185547 14.71289062 12.83203125 C17.10245298 18.29934992 18.72986754 23.01552694 19 29 C18 30 18 30 14.4375 30.0625 C13.303125 30.041875 12.16875 30.02125 11 30 C11.33 28.68 11.66 27.36 12 26 C12.99 26.33 13.98 26.66 15 27 C14.67 25.02 14.34 23.04 14 21 C9.68803391 20.05675742 5.37934119 19.51958285 1 19 C1.33 18.34 1.66 17.68 2 17 C3.32 17 4.64 17 6 17 C5.67 16.34 5.34 15.68 5 15 C4.01 14.67 3.02 14.34 2 14 C2 12.68 2 11.36 2 10 C3.875 9.375 3.875 9.375 6 9 C6.66 9.66 7.32 10.32 8 11 C7.67 8.36 7.34 5.72 7 3 C5.02 3 3.04 3 1 3 C1 4.32 1 5.64 1 7 C0.34 6.67 -0.32 6.34 -1 6 C-0.67 4.02 -0.34 2.04 0 0 Z " fill="#296DE1" transform="translate(279,185)"/>
<path d="M0 0 C1.98 0.66 3.96 1.32 6 2 C6.33 8.27 6.66 14.54 7 21 C2.38 21.33 -2.24 21.66 -7 22 C-10.99717123 16.00424316 -10.1114696 8.96065698 -10 2 C-9.01 2 -8.02 2 -7 2 C-6.93941406 2.91523438 -6.87882813 3.83046875 -6.81640625 4.7734375 C-6.73261719 5.96195313 -6.64882813 7.15046875 -6.5625 8.375 C-6.48128906 9.55835938 -6.40007813 10.74171875 -6.31640625 11.9609375 C-6.18915064 14.91518901 -6.18915064 14.91518901 -5 17 C-4.67 16.34 -4.34 15.68 -4 15 C-2.68 15 -1.36 15 0 15 C0 10.05 0 5.1 0 0 Z " fill="#236BE2" transform="translate(586,192)"/>
<path d="M0 0 C2.31 0 4.62 0 7 0 C7 9.9 7 19.8 7 30 C4.69 30 2.38 30 0 30 C0 20.1 0 10.2 0 0 Z " fill="#3A72D2" transform="translate(299,185)"/>
<path d="M0 0 C4.29 0 8.58 0 13 0 C14 5 14 5 13 7 C11.02 7 9.04 7 7 7 C7 12.28 7 17.56 7 23 C4.69 23 2.38 23 0 23 C0 15.41 0 7.82 0 0 Z " fill="#256ADE" transform="translate(661,192)"/>
<path d="M0 0 C7.20800421 -0.48867825 7.20800421 -0.48867825 10.9375 1.8125 C13.73329394 4.777736 14.13969103 7.1326496 14.125 11.0625 C14 15 14 15 13 17 C12.9603287 18.66619446 12.95615553 20.33391013 13 22 C7.97505315 25.01496811 4.71799925 25.63533325 -1 25 C-4 23.25 -4 23.25 -6 21 C-6 19.68 -6 18.36 -6 17 C-5.01 17.33 -4.02 17.66 -3 18 C-2.67 18.99 -2.34 19.98 -2 21 C0.64 21 3.28 21 6 21 C5.67 19.68 5.34 18.36 5 17 C3.02 17 1.04 17 -1 17 C-1 16.34 -1 15.68 -1 15 C5.435 14.505 5.435 14.505 12 14 C10.17455999 7.9910428 10.17455999 7.9910428 5.953125 3.734375 C3.52298678 2.81307492 3.52298678 2.81307492 0 2 C0 1.34 0 0.68 0 0 Z " fill="#306CCD" transform="translate(406,191)"/>
<path d="M0 0 C3.63 0 7.26 0 11 0 C11.33 0.99 11.66 1.98 12 3 C12.99 3.66 13.98 4.32 15 5 C15.33 7.31 15.66 9.62 16 12 C7.585 12.495 7.585 12.495 -1 13 C-1.94972145 7.3016713 -1.77483806 5.22011193 0 0 Z M6 7 C10 8 10 8 10 8 Z " fill="#226AE3" transform="translate(437,193)"/>
<path d="M0 0 C2.31 0 4.62 0 7 0 C8.19219354 2.38438709 8.12916022 3.87656002 8.1328125 6.53515625 C8.13474609 7.87223633 8.13474609 7.87223633 8.13671875 9.23632812 C8.13285156 10.16896484 8.12898437 11.10160156 8.125 12.0625 C8.12886719 12.99900391 8.13273438 13.93550781 8.13671875 14.90039062 C8.13542969 15.79048828 8.13414062 16.68058594 8.1328125 17.59765625 C8.13168457 18.41758057 8.13055664 19.23750488 8.12939453 20.08227539 C8 22 8 22 7 23 C4.69 23 2.38 23 0 23 C0 15.41 0 7.82 0 0 Z " fill="#2D68D8" transform="translate(597,192)"/>
<path d="M0 0 C0.66 1.65 1.32 3.3 2 5 C3.32 5 4.64 5 6 5 C6.33 6.98 6.66 8.96 7 11 C6.01 11.495 6.01 11.495 5 12 C4.59270772 14.32156597 4.25561323 16.6568787 4 19 C2.35 19 0.7 19 -1 19 C-1.33 18.01 -1.66 17.02 -2 16 C-1.690625 15.443125 -1.38125 14.88625 -1.0625 14.3125 C0.53065326 10.84504879 0.12648259 7.7944776 0 4 C-1.98 4 -3.96 4 -6 4 C-6.13418784 9.42027727 -6.13418784 9.42027727 -5.375 14.75 C-4.91557567 17.50654601 -5.5368182 18.67612302 -7 21 C-7.99 20.67 -8.98 20.34 -10 20 C-10.78331459 16.2792557 -11.16256307 12.60534899 -11.3125 8.8125 C-11.34988281 7.97332031 -11.38726562 7.13414062 -11.42578125 6.26953125 C-11 4 -11 4 -9.14453125 2.2421875 C-6.16894285 0.51862263 -3.41723069 0 0 0 Z " fill="#216AE7" transform="translate(360,194)"/>
<path d="M0 0 C1.65 0 3.3 0 5 0 C5 9.57 5 19.14 5 29 C3.68 28.67 2.36 28.34 1 28 C1 23.38 1 18.76 1 14 C0.01 14 -0.98 14 -2 14 C-2 13.34 -2 12.68 -2 12 C-3.65 12 -5.3 12 -7 12 C-7 11.01 -7 10.02 -7 9 C-5.02 8.67 -3.04 8.34 -1 8 C-0.67 5.36 -0.34 2.72 0 0 Z " fill="#1B68EB" transform="translate(630,184)"/>
<path d="M0 0 C2.64 0.66 5.28 1.32 8 2 C8 2.99 8 3.98 8 5 C8.66 5 9.32 5 10 5 C10 7.31 10 9.62 10 12 C8.72125 12.061875 7.4425 12.12375 6.125 12.1875 C5.40570312 12.22230469 4.68640625 12.25710937 3.9453125 12.29296875 C3.30335938 12.19628906 2.66140625 12.09960938 2 12 C1.34 11.01 0.68 10.02 0 9 C1.98 9 3.96 9 6 9 C6 7.68 6 6.36 6 5 C3.03 5 0.06 5 -3 5 C-3.08226668 8.04386724 -2.97608217 10.07175348 -2 13 C-2.33 13.66 -2.66 14.32 -3 15 C-6.0625 15.625 -6.0625 15.625 -9 16 C-9.02696365 14.20841511 -9.04637917 12.41671527 -9.0625 10.625 C-9.07410156 9.62726563 -9.08570313 8.62953125 -9.09765625 7.6015625 C-9 5 -9 5 -8 3 C-5.35139573 2.40644386 -2.70802678 2.25790731 0 2 C0 1.34 0 0.68 0 0 Z " fill="#1F6AE7" transform="translate(647,193)"/>
<path d="M0 0 C0.99 0.33 1.98 0.66 3 1 C4.72237197 6.1671159 4.65561622 11.10599758 2.875 16.25 C-0.33170786 20.95317152 -4.4250605 24.57385269 -10 26 C-15.81886368 26.60568098 -19.89826321 26.13953033 -25 23 C-24.67 22.34 -24.34 21.68 -24 21 C-22.91460937 21.04640625 -21.82921875 21.0928125 -20.7109375 21.140625 C-19.26565269 21.17816487 -17.82033789 21.21456264 -16.375 21.25 C-15.66214844 21.28351562 -14.94929687 21.31703125 -14.21484375 21.3515625 C-9.02550009 21.44677981 -6.08028401 20.49021217 -2 17 C-0.84429296 13.53287889 -0.67164707 10.4585044 -0.4375 6.8125 C-0.35371094 5.54019531 -0.26992187 4.26789062 -0.18359375 2.95703125 C-0.09271484 1.49330078 -0.09271484 1.49330078 0 0 Z " fill="#336FD4" transform="translate(192,35)"/>
<path d="M0 0 C0 4 0 4 -2.203125 6.65722656 C-3.20854229 7.66201168 -4.22494507 8.65588166 -5.25 9.640625 C-5.78270508 10.16767029 -6.31541016 10.69471558 -6.86425781 11.23773193 C-8.56701394 12.91810634 -10.28314943 14.58404041 -12 16.25 C-13.15715907 17.38709647 -14.31342073 18.52510694 -15.46875 19.6640625 C-18.3021977 22.45341913 -21.14772432 25.22990424 -24 28 C-25.1171875 24.28125 -25.1171875 24.28125 -24.0625 21.75 C-23.711875 21.1725 -23.36125 20.595 -23 20 C-21.68 20 -20.36 20 -19 20 C-19.103125 19.236875 -19.20625 18.47375 -19.3125 17.6875 C-19.1578125 16.3571875 -19.1578125 16.3571875 -19 15 C-16.13896577 12.75756777 -14.65923696 12 -11 12 C-10.67 10.35 -10.34 8.7 -10 7 C-9.01 6.67 -8.02 6.34 -7 6 C-7.33 4.68 -7.66 3.36 -8 2 C-4.77208445 -0.1519437 -3.71599191 -0.20086443 0 0 Z " fill="#2A6AD8" transform="translate(170,201)"/>
<path d="M0 0 C1.54204102 0.00966797 1.54204102 0.00966797 3.11523438 0.01953125 C4.18708984 0.03628906 5.25894531 0.05304688 6.36328125 0.0703125 C7.44673828 0.07933594 8.53019531 0.08835937 9.64648438 0.09765625 C12.32313835 0.1212391 14.99934922 0.15415124 17.67578125 0.1953125 C18.00578125 1.8453125 18.33578125 3.4953125 18.67578125 5.1953125 C18.01578125 5.1953125 17.35578125 5.1953125 16.67578125 5.1953125 C16.67578125 4.5353125 16.67578125 3.8753125 16.67578125 3.1953125 C9.41578125 3.1953125 2.15578125 3.1953125 -5.32421875 3.1953125 C-5.98421875 6.1653125 -6.64421875 9.1353125 -7.32421875 12.1953125 C-7.93537803 14.04788906 -8.59183078 15.8872297 -9.32421875 17.6953125 C-9.65421875 18.530625 -9.98421875 19.3659375 -10.32421875 20.2265625 C-11.32421875 22.1953125 -11.32421875 22.1953125 -13.32421875 23.1953125 C-12.75656677 15.95774974 -11.08708947 8.92147362 -8.32421875 2.1953125 C-4.97302356 -0.03881763 -3.90644325 -0.04316512 0 0 Z " fill="#3470D0" transform="translate(666.32421875,79.8046875)"/>
<path d="M0 0 C0.66 0.33 1.32 0.66 2 1 C1.9278125 1.77085937 1.855625 2.54171875 1.78125 3.3359375 C1.6884375 4.33882812 1.595625 5.34171875 1.5 6.375 C1.4071875 7.37273437 1.314375 8.37046875 1.21875 9.3984375 C0.97207053 11.89703736 0.97207053 11.89703736 1 14 C4.96 14 8.92 14 13 14 C13 14.66 13 15.32 13 16 C9.7 16 6.4 16 3 16 C2.67 17.98 2.34 19.96 2 22 C-0.64 22 -3.28 22 -6 22 C-5.59200675 13.97613274 -3.08963187 7.37635358 0 0 Z " fill="#306CD3" transform="translate(276,193)"/>
<path d="M0 0 C5.61 0 11.22 0 17 0 C17 0.33 17 0.66 17 1 C12.71 1 8.42 1 4 1 C3.67 2.65 3.34 4.3 3 6 C3.804375 5.67 4.60875 5.34 5.4375 5 C9.73804795 3.79282865 13.56966181 3.82278647 18 4 C18 6.64 18 9.28 18 12 C17.01 11.67 16.02 11.34 15 11 C15 9.35 15 7.7 15 6 C12.69 6 10.38 6 8 6 C8 7.98 8 9.96 8 12 C7.34 11.67 6.68 11.34 6 11 C6 10.01 6 9.02 6 8 C5.01 8 4.02 8 3 8 C3 12.29 3 16.58 3 21 C2.67 21 2.34 21 2 21 C1.67 22.98 1.34 24.96 1 27 C0.67 27 0.34 27 0 27 C0 18.09 0 9.18 0 0 Z " fill="#2F6CD4" transform="translate(322,186)"/>
<path d="M0 0 C3.65703177 3.65703177 4.84056644 9.03077569 6.625 13.8125 C7.25535156 15.4531543 7.25535156 15.4531543 7.8984375 17.12695312 C8.29546875 18.18462891 8.6925 19.24230469 9.1015625 20.33203125 C9.46588379 21.29858643 9.83020508 22.2651416 10.20556641 23.26098633 C10.99800028 25.99310546 11.15628198 28.17374006 11 31 C10.34 31.33 9.68 31.66 9 32 C5.89662428 29.69236165 4.22352636 28.36857177 3.5859375 24.46484375 C3.48557714 22.54479166 3.39602089 20.62414914 3.31640625 18.703125 C2.99146507 15.92708429 2.43564391 14.63925624 0.875 12.375 C-1.60577318 7.90960828 -1.01403145 4.86073773 0 0 Z " fill="#2A66D5" transform="translate(630,102)"/>
<path d="M0 0 C2.31 0 4.62 0 7 0 C8.82671197 3.65342394 8.18470722 7.97839159 8.1875 12 C8.19974609 12.928125 8.21199219 13.85625 8.22460938 14.8125 C8.22750977 16.1428125 8.22750977 16.1428125 8.23046875 17.5 C8.23457764 18.3146875 8.23868652 19.129375 8.24291992 19.96875 C8 22 8 22 6 24 C2.8828125 24.265625 2.8828125 24.265625 -0.875 24.25 C-2.10992188 24.25515625 -3.34484375 24.2603125 -4.6171875 24.265625 C-7.72188334 24.02183826 -9.41039696 23.63964816 -12 22 C-12 21.01 -12 20.02 -12 19 C-10.68 19.33 -9.36 19.66 -8 20 C-8 20.66 -8 21.32 -8 22 C-7.0409375 21.7525 -7.0409375 21.7525 -6.0625 21.5 C-2.02413348 20.84067485 1.91807258 20.91996221 6 21 C5.7525 19.63875 5.7525 19.63875 5.5 18.25 C4.71126689 12.86217525 4.91974077 7.43087444 5 2 C3.35 1.67 1.7 1.34 0 1 C0 0.67 0 0.34 0 0 Z " fill="#3169C2" transform="translate(587,192)"/>
<path d="M0 0 C0.99 0 1.98 0 3 0 C3.99 2.64 4.98 5.28 6 8 C3 10 3 10 -0.0625 9.875 C-3 9 -3 9 -4.375 6.9375 C-4.58125 6.298125 -4.7875 5.65875 -5 5 C-7.54251602 5.24431996 -7.54251602 5.24431996 -10 7 C-10.78845621 9.59188644 -11.19242433 12.10021709 -11.54296875 14.78515625 C-11.69378906 15.51605469 -11.84460938 16.24695313 -12 17 C-12.66 17.33 -13.32 17.66 -14 18 C-14.05402274 15.89611431 -14.09280256 13.79183286 -14.125 11.6875 C-14.14820313 10.51574219 -14.17140625 9.34398437 -14.1953125 8.13671875 C-14 5 -14 5 -12 2 C-10.3743193 2.30893932 -8.74947252 2.6222695 -7.125 2.9375 C-6.22007812 3.11152344 -5.31515625 3.28554687 -4.3828125 3.46484375 C-2 4 -2 4 0 5 C0 3.35 0 1.7 0 0 Z " fill="#356ED3" transform="translate(508,187)"/>
<path d="M0 0 C1.32 0.66 2.64 1.32 4 2 C4 3.98 4 5.96 4 8 C3.01 8 2.02 8 1 8 C0.86722656 8.71027344 0.73445313 9.42054688 0.59765625 10.15234375 C0.33275391 11.53099609 0.33275391 11.53099609 0.0625 12.9375 C-0.11152344 13.85402344 -0.28554688 14.77054688 -0.46484375 15.71484375 C-1 18 -1 18 -2 19 C-3.65 19 -5.3 19 -7 19 C-7.33 15.37 -7.66 11.74 -8 8 C-6.576875 7.4121875 -6.576875 7.4121875 -5.125 6.8125 C-1.65872662 4.80206144 -1.0197307 3.77300358 0 0 Z " fill="#1C6AEA" transform="translate(382,194)"/>
<path d="M0 0 C0.66 0.99 1.32 1.98 2 3 C-1.85801475 5.15331056 -4.55758358 6.46762278 -9 6 C-9.66 5.79375 -10.32 5.5875 -11 5.375 C-13.78537219 4.85274271 -15.48955196 5.81451065 -18 7 C-18 7.66 -18 8.32 -18 9 C-18.99 9 -19.98 9 -21 9 C-20.6872469 6.08097106 -20.01281376 5.01320205 -17.9375 2.875 C-12.19213506 -0.79225421 -6.6830342 -1.73758889 0 0 Z " fill="#2068D8" transform="translate(185,26)"/>
<path d="M0 0 C2.31 0 4.62 0 7 0 C7 0.33 7 0.66 7 1 C5.02 1 3.04 1 1 1 C1 2.65 1 4.3 1 6 C3.31 6 5.62 6 8 6 C8 4.68 8 3.36 8 2 C8.99 2.33 9.98 2.66 11 3 C11 3.66 11 4.32 11 5 C10.34 5 9.68 5 9 5 C9 5.99 9 6.98 9 8 C7.02 8 5.04 8 3 8 C3 8.66 3 9.32 3 10 C4.98 10 6.96 10 9 10 C8.01 11.485 8.01 11.485 7 13 C4.375 13.1875 4.375 13.1875 2 13 C2 14.98 2 16.96 2 19 C1.01 19.33 0.02 19.66 -1 20 C-2.28317892 16.15046324 -2.06643637 13.05261865 -2 9 C-1.34 9 -0.68 9 0 9 C0 6.03 0 3.06 0 0 Z " fill="#2065E3" transform="translate(556,190)"/>
<path d="M0 0 C7.26 0 14.52 0 22 0 C22 0.33 22 0.66 22 1 C15.4 1 8.8 1 2 1 C2 2.98 2 4.96 2 7 C2.66 7 3.32 7 4 7 C4 8.32 4 9.64 4 11 C4.99 11 5.98 11 7 11 C7.96070434 13.88211302 8.10581883 15.69850044 8.0625 18.6875 C8.05347656 19.49574219 8.04445313 20.30398437 8.03515625 21.13671875 C8.02355469 21.75160156 8.01195312 22.36648437 8 23 C4.4678557 19.89897395 2.87242136 16.99256051 1.1875 12.625 C0.74792969 11.52414063 0.30835938 10.42328125 -0.14453125 9.2890625 C-1 6 -1 6 0 0 Z " fill="#3271D6" transform="translate(599,82)"/>
<path d="M0 0 C2.64 0 5.28 0 8 0 C8.49065421 6.37850467 8.49065421 6.37850467 6.125 9.375 C1.70051231 12.75843176 -2.58268945 12.60468451 -8 12 C-10.68784572 10.98283486 -11.85453932 10.0325417 -14 8 C-14 6.68 -14 5.36 -14 4 C-12.02 4.495 -12.02 4.495 -10 5 C-10 5.99 -10 6.98 -10 8 C-6.31103735 8.65251353 -2.75092499 9.13188906 1 9 C4.45565426 6.51192893 5.66295152 5.01114543 7 1 C6.236875 1.350625 5.47375 1.70125 4.6875 2.0625 C2 3 2 3 -1 2 C-0.67 1.34 -0.34 0.68 0 0 Z " fill="#2B6ADB" transform="translate(504,204)"/>
<path d="M0 0 C3.4121353 2.12310641 5.74948744 4.13477936 7 8 C7.1875 11.1875 7.1875 11.1875 7 14 C6 15 6 15 3.27734375 15.09765625 C1.62412109 15.08025391 1.62412109 15.08025391 -0.0625 15.0625 C-1.71958984 15.04896484 -1.71958984 15.04896484 -3.41015625 15.03515625 C-4.26480469 15.02355469 -5.11945312 15.01195312 -6 15 C-6 14.67 -6 14.34 -6 14 C-2.7 14 0.6 14 4 14 C4 11.69 4 9.38 4 7 C3.34 7 2.68 7 2 7 C2 6.01 2 5.02 2 4 C-2.54710827 3.1255561 -4.9593569 2.77067967 -9 5 C-11.25 4.625 -11.25 4.625 -13 4 C-9.18018691 -0.18360481 -5.55107227 -0.47854071 0 0 Z " fill="#3269CC" transform="translate(653,191)"/>
<path d="M0 0 C4.29 0 8.58 0 13 0 C13 1.98 13 3.96 13 6 C10.63386544 7.18306728 9.13219264 7.13354608 6.5 7.125 C5.7059375 7.12757813 4.911875 7.13015625 4.09375 7.1328125 C2 7 2 7 0 6 C0 4.02 0 2.04 0 0 Z " fill="#3D6FCA" transform="translate(308,199)"/>
<path d="M0 0 C0.99 0 1.98 0 3 0 C2.42093111 3.27813387 1.48537663 4.87148449 -0.90625 7.1640625 C-1.77443359 8.01097656 -1.77443359 8.01097656 -2.66015625 8.875 C-3.26730469 9.4525 -3.87445313 10.03 -4.5 10.625 C-5.70000441 11.78169215 -6.89801974 12.94045249 -8.09375 14.1015625 C-8.62677734 14.61025879 -9.15980469 15.11895508 -9.70898438 15.64306641 C-11.117281 16.9907948 -11.117281 16.9907948 -12 19 C-12.99 18.67 -13.98 18.34 -15 18 C-15.33 17.01 -15.66 16.02 -16 15 C-14.5459375 14.1028125 -14.5459375 14.1028125 -13.0625 13.1875 C-9.76947958 11.28872491 -9.76947958 11.28872491 -9 8 C-7.68 8 -6.36 8 -5 8 C-4.67 6.02 -4.34 4.04 -4 2 C-2.68 2 -1.36 2 0 2 C0 1.34 0 0.68 0 0 Z " fill="#286AD9" transform="translate(140,229)"/>
<path d="M0 0 C0.99 0 1.98 0 3 0 C3 8.91 3 17.82 3 27 C2.01 27 1.02 27 0 27 C0 18.09 0 9.18 0 0 Z " fill="#196AEC" transform="translate(609,186)"/>
<path d="M0 0 C0.99 0 1.98 0 3 0 C3 8.58 3 17.16 3 26 C2.01 26 1.02 26 0 26 C0 17.42 0 8.84 0 0 Z " fill="#1A69EC" transform="translate(301,187)"/>
<path d="M0 0 C0.66 0.33 1.32 0.66 2 1 C1.75 2.875 1.75 2.875 1 5 C-0.32467746 5.6837045 -1.65863633 6.34964186 -3 7 C-4.26804566 9.0335948 -4.26804566 9.0335948 -5 11 C-5.99 11 -6.98 11 -8 11 C-8.33 12.65 -8.66 14.3 -9 16 C-10.32 16 -11.64 16 -13 16 C-12.4521558 11.93839643 -10.34935923 9.82859334 -7.625 6.875 C-6.83351562 6.00617188 -6.04203125 5.13734375 -5.2265625 4.2421875 C-3 2 -3 2 0 0 Z " fill="#2A63D3" transform="translate(148,160)"/>
<path d="M0 0 C1.65 0 3.3 0 5 0 C4.57664615 6.49142565 2.08900201 11.33492989 -1 17 C-3.31 17 -5.62 17 -8 17 C-8 16.01 -8 15.02 -8 14 C-5.69 14 -3.38 14 -1 14 C-0.67 9.38 -0.34 4.76 0 0 Z " fill="#306ED1" transform="translate(530,198)"/>
<path d="M0 0 C0.99 0.33 1.98 0.66 3 1 C3.33 3.31 3.66 5.62 4 8 C-1.28 8 -6.56 8 -12 8 C-12 5.69 -12 3.38 -12 1 C-11.34 1 -10.68 1 -10 1 C-10 2.32 -10 3.64 -10 5 C-6.7 4.67 -3.4 4.34 0 4 C0 2.68 0 1.36 0 0 Z " fill="#1C6AEC" transform="translate(449,197)"/>
<path d="M0 0 C0.99 0.33 1.98 0.66 3 1 C3.33 1.99 3.66 2.98 4 4 C6.64 4 9.28 4 12 4 C11.67 2.68 11.34 1.36 11 0 C13.97 0.495 13.97 0.495 17 1 C16.67 2.32 16.34 3.64 16 5 C16.66 5.33 17.32 5.66 18 6 C13.71363841 8.14318079 9.7113029 8.77888475 5 8 C2 6.25 2 6.25 0 4 C0 2.68 0 1.36 0 0 Z " fill="#2B68D4" transform="translate(400,208)"/>
<path d="M0 0 C2.97 0 5.94 0 9 0 C11.81849506 5.54891215 13.5326514 9.741346 13 16 C10.12744934 13.57804552 9.29161081 11.40257297 8.3125 7.8125 C7.93544922 6.46091797 7.93544922 6.46091797 7.55078125 5.08203125 C7.36902344 4.39496094 7.18726563 3.70789063 7 3 C5.02 3 3.04 3 1 3 C1 4.32 1 5.64 1 7 C0.34 6.67 -0.32 6.34 -1 6 C-0.67 4.02 -0.34 2.04 0 0 Z " fill="#3270D0" transform="translate(279,185)"/>
<path d="M0 0 C4 4 4 4 4.390625 7.890625 C4.36419517 9.3442656 4.31671569 10.79765068 4.25 12.25 C4.23195313 12.99507812 4.21390625 13.74015625 4.1953125 14.5078125 C4.14835649 16.33909701 4.07661652 18.16971649 4 20 C2.68 19.34 1.36 18.68 0 18 C0 12.06 0 6.12 0 0 Z " fill="#1C6AEA" transform="translate(597,193)"/>
<path d="M0 0 C0.66 0.33 1.32 0.66 2 1 C-0.49050942 7.68260913 -3.67806604 13.15963315 -9 18 C-9.99 18.33 -10.98 18.66 -12 19 C-12 17.68 -12 16.36 -12 15 C-11.34 15 -10.68 15 -10 15 C-8.47700477 12.06279492 -7.19899698 9.0831351 -6 6 C-4.68 6 -3.36 6 -2 6 C-1.855625 5.195625 -1.71125 4.39125 -1.5625 3.5625 C-1 1 -1 1 0 0 Z " fill="#2C6BD2" transform="translate(183,181)"/>
<path d="M0 0 C0.66 0 1.32 0 2 0 C2.27908468 5.42121998 1.42721053 9.37857235 -0.5 14.4375 C-0.73847656 15.07365234 -0.97695312 15.70980469 -1.22265625 16.36523438 C-1.80490924 17.91402732 -2.40101069 19.45760253 -3 21 C-3.66 21 -4.32 21 -5 21 C-5 18.36 -5 15.72 -5 13 C-4.34 13 -3.68 13 -3 13 C-2.67 10.69 -2.34 8.38 -2 6 C-1.34 6 -0.68 6 0 6 C0 4.02 0 2.04 0 0 Z " fill="#2D69D6" transform="translate(199,144)"/>
<path d="M0 0 C0.66 0.33 1.32 0.66 2 1 C1.67 5.29 1.34 9.58 1 14 C1.99 14.33 2.98 14.66 4 15 C4.33 16.65 4.66 18.3 5 20 C4.01 20 3.02 20 2 20 C-1.69677596 15.73448927 -2.03572593 10.44820358 -2 5 C-1.0625 1.875 -1.0625 1.875 0 0 Z " fill="#2F68D7" transform="translate(162,35)"/>
<path d="M0 0 C0.33 0.99 0.66 1.98 1 3 C-0.328125 5.0078125 -0.328125 5.0078125 -2.25 7.125 C-2.87390625 7.82882813 -3.4978125 8.53265625 -4.140625 9.2578125 C-6 11 -6 11 -9 12 C-11.36522558 11.07796291 -13.70401807 10.08301035 -16 9 C-15.34 7.68 -14.68 6.36 -14 5 C-12.68 5.99 -11.36 6.98 -10 8 C-5.70761377 6.34908222 -3.1206085 3.26245434 0 0 Z " fill="#2969CF" transform="translate(114,196)"/>
<path d="M0 0 C2.475 0.495 2.475 0.495 5 1 C6.65 6.61 8.3 12.22 10 18 C9.01 18 8.02 18 7 18 C7 17.34 7 16.68 7 16 C5.35 16 3.7 16 2 16 C1.67 14.35 1.34 12.7 1 11 C2.485 11.99 2.485 11.99 4 13 C3.67 10.03 3.34 7.06 3 4 C2.01 3.67 1.02 3.34 0 3 C0 2.01 0 1.02 0 0 Z " fill="#1B69EB" transform="translate(514,187)"/>
<path d="M0 0 C2.31 0 4.62 0 7 0 C7 5.94 7 11.88 7 18 C4 15 4 15 3.70703125 11.86328125 C3.74183594 10.69152344 3.77664063 9.51976562 3.8125 8.3125 C3.83957031 7.13300781 3.86664062 5.95351562 3.89453125 4.73828125 C3.92933594 3.83464844 3.96414063 2.93101562 4 2 C2.68 2.33 1.36 2.66 0 3 C0 2.01 0 1.02 0 0 Z " fill="#316ED3" transform="translate(575,192)"/>
<path d="M0 0 C0 5.94 0 11.88 0 18 C-2.77042109 15.22957891 -2.39796106 13.23466195 -2.625 9.375 C-2.69976562 8.18648437 -2.77453125 6.99796875 -2.8515625 5.7734375 C-2.90054688 4.85820313 -2.94953125 3.94296875 -3 3 C-3.99 3.99 -4.98 4.98 -6 6 C-6.99 5.67 -7.98 5.34 -9 5 C-6.73069043 -0.02489976 -5.85669231 0 0 0 Z " fill="#366BC9" transform="translate(205,105)"/>
<path d="M0 0 C0.99 0 1.98 0 3 0 C3.04898438 0.88042969 3.09796875 1.76085937 3.1484375 2.66796875 C3.22320313 3.82941406 3.29796875 4.99085938 3.375 6.1875 C3.44460938 7.33605469 3.51421875 8.48460937 3.5859375 9.66796875 C3.97509574 12.79959117 4.6809851 15.15285809 6 18 C4.68 18 3.36 18 2 18 C-0.1583195 11.92972642 -0.20852314 6.40629424 0 0 Z " fill="#1C68E9" transform="translate(576,194)"/>
<path d="M0 0 C0.89203125 0.01804688 1.7840625 0.03609375 2.703125 0.0546875 C3.71632813 0.08949219 3.71632813 0.08949219 4.75 0.125 C5.08 1.115 5.41 2.105 5.75 3.125 C4.90695312 3.24617187 4.06390625 3.36734375 3.1953125 3.4921875 C2.09960938 3.65976563 1.00390625 3.82734375 -0.125 4 C-1.76082031 4.24363281 -1.76082031 4.24363281 -3.4296875 4.4921875 C-6.36932714 4.88756513 -6.36932714 4.88756513 -8.25 7.125 C-9.24 6.795 -10.23 6.465 -11.25 6.125 C-10.3047226 3.76180651 -9.66996722 2.39497892 -7.5 1 C-4.84738096 -0.03157407 -2.83645051 -0.07464343 0 0 Z " fill="#2E69CC" transform="translate(501.25,183.875)"/>
<path d="M0 0 C0.33 0.99 0.66 1.98 1 3 C-2.11590199 7.71255984 -6.45290438 11.69302136 -11 15 C-10.55491959 9.95575532 -8.39019075 7.55556591 -5 4 C-4.34 4 -3.68 4 -3 4 C-2.67 3.01 -2.34 2.02 -2 1 C-1.34 0.67 -0.68 0.34 0 0 Z " fill="#2F65D0" transform="translate(132,177)"/>
<path d="M0 0 C3 0.125 3 0.125 4 1.125 C4.04080783 3.12458364 4.04254356 5.12545254 4 7.125 C1.69 7.125 -0.62 7.125 -3 7.125 C-3.38133299 5.1335944 -3.71325582 3.13220923 -4 1.125 C-3 0.125 -3 0.125 0 0 Z " fill="#3E68B9" transform="translate(600,183.875)"/>
<path d="M0 0 C0 4 0 4 -1.625 6.25 C-4.60496861 8.44576634 -6.38102827 8.32899743 -10 8 C-9.67 7.34 -9.34 6.68 -9 6 C-8.34 6 -7.68 6 -7 6 C-7.33 4.68 -7.66 3.36 -8 2 C-4.77208445 -0.1519437 -3.71599191 -0.20086443 0 0 Z " fill="#236BDD" transform="translate(170,201)"/>
<path d="M0 0 C0.99 0 1.98 0 3 0 C3 5.61 3 11.22 3 17 C2.01 17 1.02 17 0 17 C0 11.39 0 5.78 0 0 Z " fill="#1B69ED" transform="translate(423,196)"/>
<path d="M0 0 C2.9375 1.5 2.9375 1.5 5 4 C5.41708655 6.80196606 5.23811939 9.14256735 5 12 C3 10 3 10 2 7 C1.01 6.34 0.02 5.68 -1 5 C-1 4.01 -1 3.02 -1 2 C-4.3 2 -7.6 2 -11 2 C-6.69421007 -0.15289496 -4.71947318 -0.49678665 0 0 Z " fill="#2B6BC4" transform="translate(449,191)"/>
<path d="M0 0 C2.31 0.33 4.62 0.66 7 1 C4 4 4 4 2.375 5.1875 C0.75902521 7.31764859 0.70440319 8.49811069 0.4375 11.125 C0.2209375 13.043125 0.2209375 13.043125 0 15 C-0.99 15.495 -0.99 15.495 -2 16 C-2.05402274 13.89611431 -2.09280256 11.79183286 -2.125 9.6875 C-2.14820313 8.51574219 -2.17140625 7.34398437 -2.1953125 6.13671875 C-2 3 -2 3 0 0 Z " fill="#3268C7" transform="translate(496,189)"/>
<path d="M0 0 C-1.20381448 2.49361571 -2.45428722 4.68143083 -4 7 C-4.39013716 8.9896995 -4.73202649 10.99019869 -5 13 C-6.32 12.67 -7.64 12.34 -9 12 C-8.74553175 7.67403972 -8.3880665 5.47997699 -5.625 2.0625 C-3 0 -3 0 0 0 Z " fill="#3169CB" transform="translate(51,194)"/>
<path d="M0 0 C1.32 0.33 2.64 0.66 4 1 C4 2.65 4 4.3 4 6 C0.7 7.32 -2.6 8.64 -6 10 C-4.29395475 5.73488687 -2.90212286 3.38581001 0 0 Z " fill="#2769DD" transform="translate(532,84)"/>
<path d="M0 0 C2.05078125 0.03255208 4.1015625 0.06510417 6.15234375 0.09765625 C5.82234375 1.08765625 5.49234375 2.07765625 5.15234375 3.09765625 C5.5463171 5.73570214 5.5463171 5.73570214 6.15234375 8.09765625 C4.50234375 7.76765625 2.85234375 7.43765625 1.15234375 7.09765625 C1.15234375 6.10765625 1.15234375 5.11765625 1.15234375 4.09765625 C-0.82765625 4.42765625 -2.80765625 4.75765625 -4.84765625 5.09765625 C-2.44354091 0.12915121 -2.44354091 0.12915121 0 0 Z " fill="#3169C9" transform="translate(461.84765625,190.90234375)"/>
<path d="M0 0 C1.32 0.66 2.64 1.32 4 2 C3.01 2.66 2.02 3.32 1 4 C1.33 4.99 1.66 5.98 2 7 C1.34 7 0.68 7 0 7 C-0.28875 7.639375 -0.5775 8.27875 -0.875 8.9375 C-2 11 -2 11 -4 12 C-4.22893297 8.96663814 -4.36475845 6.02534949 -4 3 C-2 0.9375 -2 0.9375 0 0 Z " fill="#236AE3" transform="translate(124,241)"/>
<path d="M0 0 C2.97 0 5.94 0 9 0 C8.67 2.97 8.34 5.94 8 9 C7.01 9.33 6.02 9.66 5 10 C5 8.02 5 6.04 5 4 C2.525 3.01 2.525 3.01 0 2 C0 1.34 0 0.68 0 0 Z " fill="#386CC1" transform="translate(530,185)"/>
<path d="M0 0 C0.66 0 1.32 0 2 0 C1.41892368 3.7602985 0.34800504 6.53035032 -1.5625 9.8125 C-2.01753906 10.60269531 -2.47257813 11.39289063 -2.94140625 12.20703125 C-3.29074219 12.79871094 -3.64007813 13.39039063 -4 14 C-4.99 14 -5.98 14 -7 14 C-6.67 12.02 -6.34 10.04 -6 8 C-5.01 7.67 -4.02 7.34 -3 7 C-3 6.01 -3 5.02 -3 4 C-2.34 3.67 -1.68 3.34 -1 3 C-0.67 2.01 -0.34 1.02 0 0 Z " fill="#2B6CD1" transform="translate(192,166)"/>
<path d="M0 0 C0.66 0 1.32 0 2 0 C2.49196648 5.90359781 1.31411786 10.04091853 -2 15 C-2.99 15.495 -2.99 15.495 -4 16 C-3.47606294 10.13190493 -2.23891142 5.45126259 0 0 Z " fill="#2B6CD4" transform="translate(651,104)"/>
<path d="M0 0 C1.32 0.33 2.64 0.66 4 1 C4.87890625 7.15234375 4.87890625 7.15234375 5 9 C4 10 4 10 0.4375 10.0625 C-0.696875 10.041875 -1.83125 10.02125 -3 10 C-2.67 8.68 -2.34 7.36 -2 6 C-1.01 6.33 -0.02 6.66 1 7 C0.67 4.69 0.34 2.38 0 0 Z " fill="#326CD0" transform="translate(293,205)"/>
<path d="M0 0 C0.66 0.33 1.32 0.66 2 1 C2 2.32 2 3.64 2 5 C1.2575 4.979375 0.515 4.95875 -0.25 4.9375 C-2.70462279 4.99328688 -4.66109261 5.3069904 -7 6 C-6.625 3.0625 -6.625 3.0625 -6 0 C-3.4832097 -1.25839515 -2.62168527 -0.81927665 0 0 Z " fill="#2969DA" transform="translate(447,196)"/>
<path d="M0 0 C1.19109375 -0.00386719 1.19109375 -0.00386719 2.40625 -0.0078125 C4.5 0.125 4.5 0.125 6.5 1.125 C6.17 2.115 5.84 3.105 5.5 4.125 C1.87 4.125 -1.76 4.125 -5.5 4.125 C-5.83 3.135 -6.16 2.145 -6.5 1.125 C-4.13386544 -0.05806728 -2.63219264 -0.00854608 0 0 Z " fill="#2068E6" transform="translate(652.5,208.875)"/>
<path d="M0 0 C2.31 0 4.62 0 7 0 C7 0.33 7 0.66 7 1 C5.02 1 3.04 1 1 1 C1 2.65 1 4.3 1 6 C3.31 6 5.62 6 8 6 C8 4.68 8 3.36 8 2 C8.99 2.33 9.98 2.66 11 3 C11 3.66 11 4.32 11 5 C10.34 5 9.68 5 9 5 C9 5.99 9 6.98 9 8 C4.545 8.495 4.545 8.495 0 9 C0 6.03 0 3.06 0 0 Z " fill="#2969D0" transform="translate(556,190)"/>
<path d="M0 0 C-1.25125384 3.75376152 -2.5652404 4.24073289 -6 6 C-6.66 6 -7.32 6 -8 6 C-8 6.66 -8 7.32 -8 8 C-8.99 8 -9.98 8 -11 8 C-10.67278832 4.94602429 -9.96883223 3.96883223 -7.75 1.75 C-4.79010327 -0.13357065 -3.42491198 -0.39141851 0 0 Z " fill="#2D68D2" transform="translate(175,27)"/>
<path d="M0 0 C0.33 0 0.66 0 1 0 C0.67 4.29 0.34 8.58 0 13 C-2.97 12.505 -2.97 12.505 -6 12 C-6 11.01 -6 10.02 -6 9 C-5.01 8.67 -4.02 8.34 -3 8 C-1.98245132 6.1346755 -1.98245132 6.1346755 -1.3125 3.9375 C-1.06113281 3.20402344 -0.80976562 2.47054687 -0.55078125 1.71484375 C-0.36902344 1.14894531 -0.18726563 0.58304688 0 0 Z " fill="#1D69EA" transform="translate(529,199)"/>
<path d="M0 0 C0.33 0 0.66 0 1 0 C1 3.96 1 7.92 1 12 C0.67 12 0.34 12 0 12 C0 10.35 0 8.7 0 7 C-2.64 7 -5.28 7 -8 7 C-7.67 5.68 -7.34 4.36 -7 3 C-6.21625 3.061875 -5.4325 3.12375 -4.625 3.1875 C-3.75875 3.125625 -2.8925 3.06375 -2 3 C-1.34 2.01 -0.68 1.02 0 0 Z " fill="#266AE0" transform="translate(202,107)"/>
<path d="M0 0 C3.39417765 3.12621626 5.6062718 5.56541027 7 10 C5.02 10.99 5.02 10.99 3 12 C-0.42857143 4.71428571 -0.42857143 4.71428571 0 0 Z " fill="#2B6DDB" transform="translate(607,106)"/>
<path d="M0 0 C1.32 0 2.64 0 4 0 C3.125 4.875 3.125 4.875 2 6 C-0.33297433 6.04092937 -2.66705225 6.04241723 -5 6 C-5.33 5.01 -5.66 4.02 -6 3 C-4.35 3 -2.7 3 -1 3 C-0.67 2.01 -0.34 1.02 0 0 Z " fill="#2F68D4" transform="translate(107,261)"/>
<path d="M0 0 C0.99 0 1.98 0 3 0 C3.33 2.31 3.66 4.62 4 7 C1.36 7 -1.28 7 -4 7 C-4 5.02 -4 3.04 -4 1 C-3.67 1.99 -3.34 2.98 -3 4 C-2.34 3.67 -1.68 3.34 -1 3 C-0.67 2.01 -0.34 1.02 0 0 Z " fill="#266AE2" transform="translate(274,208)"/>
<path d="M0 0 C4.29 0 8.58 0 13 0 C13.33 1.65 13.66 3.3 14 5 C12 5 12 5 9.875 3 C9.25625 2.34 8.6375 1.68 8 1 C8 1.66 8 2.32 8 3 C5.36 3.33 2.72 3.66 0 4 C0 2.68 0 1.36 0 0 Z " fill="#356BC5" transform="translate(661,192)"/>
<path d="M0 0 C1.32 0 2.64 0 4 0 C4 2.97 4 5.94 4 9 C2.68 9.33 1.36 9.66 0 10 C0 6.7 0 3.4 0 0 Z " fill="#1D6AEE" transform="translate(617,197)"/>
<path d="M0 0 C2.31 0 4.62 0 7 0 C7 1.65 7 3.3 7 5 C5.68 4.34 4.36 3.68 3 3 C1.02 5.97 1.02 5.97 -1 9 C-2.34540051 6.30919898 -1.71610898 4.86443593 -1 2 C-0.67 1.34 -0.34 0.68 0 0 Z " fill="#316ACC" transform="translate(380,192)"/>
<path d="M0 0 C7.50769231 0.49230769 7.50769231 0.49230769 10 3.0625 C10.33 3.701875 10.66 4.34125 11 5 C7.75 5.75 7.75 5.75 4 6 C1.5625 4.1875 1.5625 4.1875 0 2 C0 1.34 0 0.68 0 0 Z " fill="#1F6BE8" transform="translate(438,208)"/>
<path d="M0 0 C0.99 0.33 1.98 0.66 3 1 C3 2.98 3 4.96 3 7 C5.97 7.495 5.97 7.495 9 8 C9 8.66 9 9.32 9 10 C6.69 10 4.38 10 2 10 C0.68373308 6.38026598 0 3.90432869 0 0 Z " fill="#326CC7" transform="translate(384,205)"/>
<path d="M0 0 C3.63 0.66 7.26 1.32 11 2 C11 2.66 11 3.32 11 4 C7.37 4.66 3.74 5.32 0 6 C0 4.02 0 2.04 0 0 Z " fill="#2C6DE1" transform="translate(308,199)"/>
<path d="M0 0 C0.99 0.33 1.98 0.66 3 1 C3 4.3 3 7.6 3 11 C1.02 11.99 1.02 11.99 -1 13 C-0.67 8.71 -0.34 4.42 0 0 Z " fill="#1867E8" transform="translate(490,196)"/>
<path d="M0 0 C-1.70828921 2.10633718 -2.52148416 2.93801608 -5.26171875 3.29296875 C-6.06222656 3.25816406 -6.86273437 3.22335938 -7.6875 3.1875 C-8.49574219 3.16042969 -9.30398438 3.13335937 -10.13671875 3.10546875 C-10.75160156 3.07066406 -11.36648438 3.03585938 -12 3 C-12 2.34 -12 1.68 -12 1 C-7.53763531 -0.80619523 -4.68965706 -1.11658501 0 0 Z " fill="#2F69CB" transform="translate(657,213)"/>
<path d="M0 0 C0.33 0.99 0.66 1.98 1 3 C0.01 3 -0.98 3 -2 3 C-2.33 4.65 -2.66 6.3 -3 8 C-4.32 8 -5.64 8 -7 8 C-6.38722388 5.03824877 -5.74627478 3.61941217 -4 1 C-1.875 0.3125 -1.875 0.3125 0 0 Z " fill="#2667DC" transform="translate(142,168)"/>
<path d="M0 0 C-1.98 2.31 -3.96 4.62 -6 7 C-6.99 6.67 -7.98 6.34 -9 6 C-9 5.34 -9 4.68 -9 4 C-8.01 4 -7.02 4 -6 4 C-6 2.68 -6 1.36 -6 0 C-3 -1 -3 -1 0 0 Z " fill="#2C6AC7" transform="translate(165,209)"/>
<path d="M0 0 C2.86724686 0.57344937 3.8614515 0.8614515 6 3 C5.625 5.625 5.625 5.625 5 8 C4.01 7.67 3.02 7.34 2 7 C0.8125 3.4375 0.8125 3.4375 0 0 Z " fill="#226AD5" transform="translate(81,242)"/>
<path d="M0 0 C1.65 0 3.3 0 5 0 C5 1.32 5 2.64 5 4 C3.68 3.67 2.36 3.34 1 3 C1 5.31 1 7.62 1 10 C0.34 9.67 -0.32 9.34 -1 9 C-0.67 6.03 -0.34 3.06 0 0 Z " fill="#2468DF" transform="translate(630,184)"/>
<path d="M0 0 C2.31 0.66 4.62 1.32 7 2 C7.33 3.65 7.66 5.3 8 7 C4.21388773 6.45912682 2.44599233 4.88277668 0 2 C0 1.34 0 0.68 0 0 Z " fill="#306DD1" transform="translate(87,250)"/>
<path d="M0 0 C1.98 0 3.96 0 6 0 C6 4.29 6 8.58 6 13 C5.67 13 5.34 13 5 13 C4.67 9.37 4.34 5.74 4 2 C2.68 2.33 1.36 2.66 0 3 C0 2.01 0 1.02 0 0 Z " fill="#3971CD" transform="translate(575,192)"/>
<path d="M0 0 C2.64 0 5.28 0 8 0 C8 0.99 8 1.98 8 3 C5.69 3 3.38 3 1 3 C1 4.32 1 5.64 1 7 C0.34 6.67 -0.32 6.34 -1 6 C-0.67 4.02 -0.34 2.04 0 0 Z " fill="#3B6DC3" transform="translate(279,185)"/>
<path d="M0 0 C0.75 1.6875 0.75 1.6875 1 4 C-0.9375 6.75 -0.9375 6.75 -3 9 C-3.99 8.67 -4.98 8.34 -6 8 C-4.26440562 4.942048 -2.61527381 2.36620011 0 0 Z " fill="#2A69D1" transform="translate(191,115)"/>
<path d="M0 0 C0.66 0.33 1.32 0.66 2 1 C0.79618552 3.49361571 -0.45428722 5.68143083 -2 8 C-2.99 7.67 -3.98 7.34 -5 7 C-5.33 6.01 -5.66 5.02 -6 4 C-4.02 2.68 -2.04 1.36 0 0 Z " fill="#2F6BCD" transform="translate(130,240)"/>
<path d="M0 0 C0.99 0 1.98 0 3 0 C3 0.66 3 1.32 3 2 C3.66 2 4.32 2 5 2 C4.39816251 4.02045442 3.72693904 6.02111039 3 8 C2.01 8.495 2.01 8.495 1 9 C0.67 6.03 0.34 3.06 0 0 Z " fill="#2564E2" transform="translate(680,83)"/>
<path d="M0 0 C3.74278215 1.4488189 3.74278215 1.4488189 4.875 3.875 C5.02787435 6.47386397 4.33454536 7.8019253 3 10 C0.96564469 6.27034861 0 4.33094958 0 0 Z " fill="#3867C3" transform="translate(567,186)"/>
<path d="M0 0 C0.99 0.33 1.98 0.66 3 1 C3.33 3.64 3.66 6.28 4 9 C3.01 8.67 2.02 8.34 1 8 C0.67 5.36 0.34 2.72 0 0 Z " fill="#316FD5" transform="translate(619,137)"/>
<path d="M0 0 C1.32 0 2.64 0 4 0 C2.7508258 3.45925163 1.32472205 6.14693203 -1 9 C-1.09765625 2.84765625 -1.09765625 2.84765625 -1 1 C-0.67 0.67 -0.34 0.34 0 0 Z " fill="#326CCA" transform="translate(354,197)"/>
<path d="M0 0 C0.33 0 0.66 0 1 0 C1 3.63 1 7.26 1 11 C-1.475 10.01 -1.475 10.01 -4 9 C-3.34 8.01 -2.68 7.02 -2 6 C-1.34 6 -0.68 6 0 6 C0 4.02 0 2.04 0 0 Z " fill="#3475E7" transform="translate(470,185)"/>
<path d="M0 0 C2.74148672 0.37047118 4.58593199 0.68587944 6.8125 2.375 C8 4 8 4 8 7 C6.0625 6.6875 6.0625 6.6875 4 6 C3.67 5.01 3.34 4.02 3 3 C1.50014391 1.33289654 1.50014391 1.33289654 0 0 Z " fill="#2C6CD2" transform="translate(70,172)"/>
<path d="M0 0 C1.875 0.25 1.875 0.25 4 1 C5.25 3.0625 5.25 3.0625 6 5 C4.35 5 2.7 5 1 5 C0.67 3.35 0.34 1.7 0 0 Z " fill="#1B6AE7" transform="translate(620,208)"/>
<path d="M0 0 C0.99 0 1.98 0 3 0 C3 2.31 3 4.62 3 7 C2.01 7.33 1.02 7.66 0 8 C0 5.36 0 2.72 0 0 Z " fill="#326BD5" transform="translate(555,202)"/>
<path d="M0 0 C2.97 0.33 5.94 0.66 9 1 C9 1.66 9 2.32 9 3 C6.69 3.66 4.38 4.32 2 5 C1.34 3.35 0.68 1.7 0 0 Z " fill="#256AD6" transform="translate(403,196)"/>
<path d="M0 0 C1.32 0.33 2.64 0.66 4 1 C4.33 2.32 4.66 3.64 5 5 C3.35 4.67 1.7 4.34 0 4 C0 2.68 0 1.36 0 0 Z " fill="#2A6AD7" transform="translate(58,219)"/>
<path d="M0 0 C0.66 0 1.32 0 2 0 C3.60725635 3.21451269 3.05748185 6.43612536 3 10 C-0.00617269 6.99382731 0.40414684 4.17618402 0 0 Z " fill="#246DF2" transform="translate(458,197)"/>
<path d="M0 0 C2.88575819 0.39803561 3.82189513 0.79009069 5.75 3.0625 C6.1625 3.701875 6.575 4.34125 7 5 C5.35 5 3.7 5 2 5 C1.34 3.35 0.68 1.7 0 0 Z " fill="#1A4CF2" transform="translate(68,231)"/>
<path d="M0 0 C1.98 0.495 1.98 0.495 4 1 C4 2.32 4 3.64 4 5 C2.35 5 0.7 5 -1 5 C-0.67 3.35 -0.34 1.7 0 0 Z " fill="#1D6AF2" transform="translate(587,208)"/>
<path d="M0 0 C2.97 0.495 2.97 0.495 6 1 C6 2.65 6 4.3 6 6 C5.01 6 4.02 6 3 6 C3.33 4.68 3.66 3.36 4 2 C2.35 2 0.7 2 -1 2 C-0.67 1.34 -0.34 0.68 0 0 Z " fill="#396BC6" transform="translate(413,207)"/>
<path d="M0 0 C2.475 0.495 2.475 0.495 5 1 C5.33 1.99 5.66 2.98 6 4 C4.35 4 2.7 4 1 4 C0.67 2.68 0.34 1.36 0 0 Z " fill="#306FDF" transform="translate(598,186)"/>
<path d="M0 0 C2.31 0 4.62 0 7 0 C6.67 0.99 6.34 1.98 6 3 C4.02 3 2.04 3 0 3 C0 2.01 0 1.02 0 0 Z " fill="#3B6CBE" transform="translate(522,212)"/>
<path d="M0 0 C0.33 0.66 0.66 1.32 1 2 C1.66 2.33 2.32 2.66 3 3 C2.03114628 4.68496298 1.03013277 6.35178756 0 8 C-0.33 8 -0.66 8 -1 8 C-0.67 5.36 -0.34 2.72 0 0 Z " fill="#2E6ED6" transform="translate(654,95)"/>
</svg>
